<?xml version="1.0" encoding="UTF-8"?>
<svg xmlns="http://www.w3.org/2000/svg" xmlns:xlink="http://www.w3.org/1999/xlink" viewBox="0 0 227.72 379.46">
  <defs>
    <style>
      .cls-1 {
        fill: #96291a;
      }

      .cls-1, .cls-2, .cls-3, .cls-4, .cls-5, .cls-6, .cls-7, .cls-8, .cls-9, .cls-10, .cls-11, .cls-12, .cls-13, .cls-14, .cls-15, .cls-16, .cls-17, .cls-18, .cls-19, .cls-20, .cls-21, .cls-22, .cls-23, .cls-24, .cls-25, .cls-26, .cls-27, .cls-28, .cls-29, .cls-30, .cls-31, .cls-32, .cls-33, .cls-34, .cls-35, .cls-36, .cls-37, .cls-38, .cls-39, .cls-40, .cls-41, .cls-42, .cls-43, .cls-44, .cls-45, .cls-46, .cls-47, .cls-48, .cls-49, .cls-50, .cls-51, .cls-52, .cls-53, .cls-54, .cls-55, .cls-56, .cls-57 {
        stroke-width: 0px;
      }

      .cls-2 {
        fill: url(#_Áåçûìÿííûé_ãðàäèåíò_65);
      }

      .cls-2, .cls-8, .cls-9, .cls-11, .cls-12, .cls-21, .cls-26, .cls-32, .cls-33, .cls-40, .cls-41, .cls-44, .cls-48, .cls-52 {
        mix-blend-mode: multiply;
      }

      .cls-2, .cls-12, .cls-26, .cls-32, .cls-40, .cls-41, .cls-44 {
        opacity: .6;
      }

      .cls-58 {
        mix-blend-mode: soft-light;
        stroke: #fff;
      }

      .cls-58, .cls-8, .cls-9, .cls-11, .cls-21, .cls-33, .cls-52 {
        opacity: .5;
      }

      .cls-58, .cls-20, .cls-59 {
        fill: none;
      }

      .cls-58, .cls-59 {
        stroke-miterlimit: 10;
      }

      .cls-3 {
        fill: #002d74;
      }

      .cls-4 {
        fill: #d2d9dd;
      }

      .cls-5 {
        fill: url(#_Áåçûìÿííûé_ãðàäèåíò_11);
      }

      .cls-6 {
        fill: url(#_Áåçûìÿííûé_ãðàäèåíò_11-3);
      }

      .cls-7 {
        fill: #c14a4c;
      }

      .cls-8 {
        fill: #a074a3;
      }

      .cls-9 {
        fill: url(#_Áåçûìÿííûé_ãðàäèåíò_74);
      }

      .cls-10 {
        fill: url(#_Áåçûìÿííûé_ãðàäèåíò_407);
      }

      .cls-11 {
        fill: url(#_Áåçûìÿííûé_ãðàäèåíò_74-2);
      }

      .cls-12 {
        fill: url(#linear-gradient);
      }

      .cls-60 {
        clip-path: url(#clippath-2);
      }

      .cls-61 {
        isolation: isolate;
      }

      .cls-13 {
        fill: #1c2e45;
      }

      .cls-14 {
        fill: url(#_Áåçûìÿííûé_ãðàäèåíò_415);
      }

      .cls-15 {
        fill: #345279;
      }

      .cls-16 {
        fill: url(#_Áåçûìÿííûé_ãðàäèåíò_415-2);
      }

      .cls-17 {
        fill: url(#_Áåçûìÿííûé_ãðàäèåíò_11-4);
      }

      .cls-18 {
        fill: #eaebec;
      }

      .cls-19 {
        fill: #8a1e14;
      }

      .cls-21 {
        fill: url(#_Áåçûìÿííûé_ãðàäèåíò_74-3);
      }

      .cls-62 {
        clip-path: url(#clippath-1);
      }

      .cls-22 {
        fill: #c05d4a;
      }

      .cls-59 {
        stroke: #f08220;
        stroke-width: 6px;
      }

      .cls-23 {
        fill: #f18a00;
      }

      .cls-24 {
        fill: #eeb6ad;
      }

      .cls-25 {
        fill: #b55845;
      }

      .cls-26 {
        fill: url(#_Áåçûìÿííûé_ãðàäèåíò_409-3);
      }

      .cls-27 {
        fill: #dfe2e5;
      }

      .cls-28 {
        fill: #fff;
      }

      .cls-29 {
        fill: #c0cace;
      }

      .cls-30 {
        fill: url(#linear-gradient-2);
      }

      .cls-31 {
        fill: #381e22;
      }

      .cls-32 {
        fill: url(#Gradiente_sem_nome_8);
      }

      .cls-33 {
        fill: url(#_Áåçûìÿííûé_ãðàäèåíò_74-4);
      }

      .cls-34 {
        fill: url(#linear-gradient-3);
      }

      .cls-35 {
        fill: url(#_Áåçûìÿííûé_ãðàäèåíò_341);
      }

      .cls-36 {
        fill: #6bb644;
      }

      .cls-37 {
        fill: #231f20;
      }

      .cls-38 {
        fill: #e99d81;
      }

      .cls-39 {
        fill: #272727;
      }

      .cls-40 {
        fill: url(#_Áåçûìÿííûé_ãðàäèåíò_409-4);
      }

      .cls-63 {
        clip-path: url(#clippath);
      }

      .cls-41 {
        fill: url(#_Áåçûìÿííûé_ãðàäèåíò_409);
      }

      .cls-42 {
        fill: url(#_Áåçûìÿííûé_ãðàäèåíò_11-2);
      }

      .cls-43 {
        fill: url(#_Áåçûìÿííûé_ãðàäèåíò_415-4);
      }

      .cls-44 {
        fill: url(#_Áåçûìÿííûé_ãðàäèåíò_409-2);
      }

      .cls-45 {
        fill: url(#_Áåçûìÿííûé_ãðàäèåíò_415-3);
      }

      .cls-46 {
        fill: #5a3311;
      }

      .cls-47 {
        fill: #d7a59c;
      }

      .cls-48 {
        fill: #3e517a;
        opacity: .2;
      }

      .cls-49 {
        fill: #59001b;
      }

      .cls-50 {
        fill: #ffbe7f;
      }

      .cls-51 {
        fill: #ffbfa6;
      }

      .cls-52 {
        fill: url(#_Áåçûìÿííûé_ãðàäèåíò_74-5);
      }

      .cls-53 {
        fill: #ffe8ea;
      }

      .cls-54, .cls-64 {
        fill: #f9f4f1;
      }

      .cls-55 {
        fill: #da6668;
      }

      .cls-56 {
        fill: #a23521;
      }

      .cls-57 {
        fill: #f2a385;
      }
    </style>
    <clipPath id="clippath">
      <circle class="cls-20" cx="114.22" cy="117.77" r="108.47"/>
    </clipPath>
    <linearGradient id="_Áåçûìÿííûé_ãðàäèåíò_415" data-name="Áåçûìÿííûé ãðàäèåíò 415" x1="-1311.67" y1="167.05" x2="-1206.81" y2="167.05" gradientTransform="translate(-1248.46 0) rotate(-180) scale(1.07 -1)" gradientUnits="userSpaceOnUse">
      <stop offset=".02" stop-color="#ffbfa6"/>
      <stop offset="1" stop-color="#ff9292"/>
    </linearGradient>
    <linearGradient id="_Áåçûìÿííûé_ãðàäèåíò_415-2" data-name="Áåçûìÿííûé ãðàäèåíò 415" x1="-1309.21" y1="138.38" x2="-1222.59" y2="138.38" xlink:href="#_Áåçûìÿííûé_ãðàäèåíò_415"/>
    <linearGradient id="linear-gradient" x1="-1233.75" y1="107.35" x2="-1295.76" y2="170.17" gradientTransform="translate(-1248.46 0) rotate(-180) scale(1.07 -1)" gradientUnits="userSpaceOnUse">
      <stop offset="0" stop-color="#ad60f1"/>
      <stop offset="1" stop-color="#ffe7d8"/>
    </linearGradient>
    <linearGradient id="Gradiente_sem_nome_8" data-name="Gradiente sem nome 8" x1="-738.99" y1="277.28" x2="-684.88" y2="276.91" gradientTransform="translate(739.37 0) scale(1.07 1)" gradientUnits="userSpaceOnUse">
      <stop offset="0" stop-color="#c360f4"/>
      <stop offset="1" stop-color="#ffe7d7"/>
    </linearGradient>
    <linearGradient id="_Áåçûìÿííûé_ãðàäèåíò_11" data-name="Áåçûìÿííûé ãðàäèåíò 11" x1="-82.07" y1="201.13" x2="124.77" y2="201.13" gradientTransform="translate(148.94 440.48) rotate(170.14) scale(.99 .42) skewX(-4.31)" gradientUnits="userSpaceOnUse">
      <stop offset="0" stop-color="#c7b4da"/>
      <stop offset="1" stop-color="#a8b5de"/>
    </linearGradient>
    <linearGradient id="_Áåçûìÿííûé_ãðàäèåíò_11-2" data-name="Áåçûìÿííûé ãðàäèåíò 11" x1="-82.58" y1="203.31" x2="123.66" y2="203.31" xlink:href="#_Áåçûìÿííûé_ãðàäèåíò_11"/>
    <linearGradient id="_Áåçûìÿííûé_ãðàäèåíò_11-3" data-name="Áåçûìÿííûé ãðàäèåíò 11" x1="-72.83" y1="367.1" x2="132.47" y2="367.1" gradientTransform="translate(241.05 2.37) rotate(179.64) scale(1.03 -.93) skewX(5.9)" xlink:href="#_Áåçûìÿííûé_ãðàäèåíò_11"/>
    <linearGradient id="_Áåçûìÿííûé_ãðàäèåíò_11-4" data-name="Áåçûìÿííûé ãðàäèåíò 11" x1="-73.36" y1="367.56" x2="129.42" y2="367.56" gradientTransform="translate(241.05 2.37) rotate(179.64) scale(1.03 -.93) skewX(5.9)" xlink:href="#_Áåçûìÿííûé_ãðàäèåíò_11"/>
    <linearGradient id="_Áåçûìÿííûé_ãðàäèåíò_415-3" data-name="Áåçûìÿííûé ãðàäèåíò 415" x1="-7543.56" y1="138.21" x2="-7459.52" y2="138.21" gradientTransform="translate(-7720.13 -1513.72) rotate(-169.37) scale(1.07 -1) skewX(.49)" xlink:href="#_Áåçûìÿííûé_ãðàäèåíò_415"/>
    <linearGradient id="_Áåçûìÿííûé_ãðàäèåíò_409" data-name="Áåçûìÿííûé ãðàäèåíò 409" x1="-7530.4" y1="100.56" x2="-7338.83" y2="275.86" gradientTransform="translate(-7720.13 -1513.72) rotate(-169.37) scale(1.07 -1) skewX(.49)" gradientUnits="userSpaceOnUse">
      <stop offset="0" stop-color="#ffe7d8"/>
      <stop offset=".99" stop-color="#ad60f1"/>
    </linearGradient>
    <linearGradient id="_Áåçûìÿííûé_ãðàäèåíò_409-2" data-name="Áåçûìÿííûé ãðàäèåíò 409" x1="-7554.8" y1="121.21" x2="-7410.47" y2="253.27" xlink:href="#_Áåçûìÿííûé_ãðàäèåíò_409"/>
    <clipPath id="clippath-1">
      <path id="SVGID-2" data-name="SVGID" class="cls-54" d="M119.41,102.71s-2.9.64-3.48.63c-.59,0-8.02-1.09-9.5-1.92-1.05-.59-1.93-1.06-3-2.31-.58-.67-.96-2.34-1.08-2.6,0,0,3.48-1.28,5.23-1.4.79-.05,7.3,1.76,9.55,2.56.49.18,2.19,3.6,2.29,5.03Z"/>
    </clipPath>
    <linearGradient id="linear-gradient-2" x1="-7460.8" y1="268.63" x2="-7460.8" y2="262.87" gradientTransform="translate(-7682.98 -1490) rotate(-170.38) scale(1.07 -1) skewX(.37)" gradientUnits="userSpaceOnUse">
      <stop offset="0" stop-color="#6f8888"/>
      <stop offset=".05" stop-color="#6d8384"/>
      <stop offset=".45" stop-color="#64606e"/>
      <stop offset=".77" stop-color="#5e4a60"/>
      <stop offset=".98" stop-color="#5c435b"/>
    </linearGradient>
    <clipPath id="clippath-2">
      <path id="SVGID-4" data-name="SVGID" class="cls-54" d="M135.9,105.69s2.67-2.52,4.41-3.01c1.07-.3,7.85,1.16,7.85,1.16l2.32,2.79s-.87,1.31-1.27,1.56c-.76.47-2.5.9-3.31,1.11-2.12.54-4.66-.29-6.92-.71-1.11-.21-3.08-2.89-3.08-2.89Z"/>
    </clipPath>
    <linearGradient id="linear-gradient-3" x1="-7533.08" y1="145.92" x2="-7533.08" y2="140.22" gradientTransform="translate(589.28 -7909.03) rotate(-87.84) scale(1.07 -1) skewX(.49)" xlink:href="#linear-gradient-2"/>
    <linearGradient id="_Áåçûìÿííûé_ãðàäèåíò_65" data-name="Áåçûìÿííûé ãðàäèåíò 65" x1="-7248.85" y1="-1024.87" x2="-7248.85" y2="-1032.95" gradientTransform="translate(-7504.77 -1271.95) rotate(-161.97) scale(1.06 -1) skewX(1.41)" gradientUnits="userSpaceOnUse">
      <stop offset="0" stop-color="#ad60f1"/>
      <stop offset="1" stop-color="#ffe7d8"/>
    </linearGradient>
    <linearGradient id="_Áåçûìÿííûé_ãðàäèåíò_341" data-name="Áåçûìÿííûé ãðàäèåíò 341" x1="-7519.24" y1="183.88" x2="-7509.67" y2="183.88" gradientTransform="translate(-7720.13 -1513.72) rotate(-169.37) scale(1.07 -1) skewX(.49)" gradientUnits="userSpaceOnUse">
      <stop offset="0" stop-color="#e9857e"/>
      <stop offset="1" stop-color="#ec686a"/>
    </linearGradient>
    <linearGradient id="_Áåçûìÿííûé_ãðàäèåíò_407" data-name="Áåçûìÿííûé ãðàäèåíò 407" x1="-7323.61" y1="797.03" x2="-7307.75" y2="797.03" gradientTransform="translate(-7527.9 -1591.45) rotate(-173.08) scale(1.07 -1) skewX(.02)" gradientUnits="userSpaceOnUse">
      <stop offset="0" stop-color="#cc6074"/>
      <stop offset="1" stop-color="#dd4a7f"/>
    </linearGradient>
    <linearGradient id="_Áåçûìÿííûé_ãðàäèåíò_74" data-name="Áåçûìÿííûé ãðàäèåíò 74" x1="-1326.36" y1="106.97" x2="-1315.72" y2="106.97" gradientTransform="translate(-1206.96 -291.24) rotate(-169.37) scale(1.07 -1) skewX(.49)" gradientUnits="userSpaceOnUse">
      <stop offset=".01" stop-color="#bb6885"/>
      <stop offset="1" stop-color="#8b80f1"/>
    </linearGradient>
    <linearGradient id="_Áåçûìÿííûé_ãðàäèåíò_74-2" data-name="Áåçûìÿííûé ãðàäèåíò 74" x1="-1322.15" y1="91.44" x2="-1312.96" y2="91.44" xlink:href="#_Áåçûìÿííûé_ãðàäèåíò_74"/>
    <linearGradient id="_Áåçûìÿííûé_ãðàäèåíò_74-3" data-name="Áåçûìÿííûé ãðàäèåíò 74" x1="-1318.72" y1="88.48" x2="-1307.79" y2="88.48" xlink:href="#_Áåçûìÿííûé_ãðàäèåíò_74"/>
    <linearGradient id="_Áåçûìÿííûé_ãðàäèåíò_74-4" data-name="Áåçûìÿííûé ãðàäèåíò 74" x1="-1301.11" y1="84.72" x2="-1278.22" y2="84.72" xlink:href="#_Áåçûìÿííûé_ãðàäèåíò_74"/>
    <linearGradient id="_Áåçûìÿííûé_ãðàäèåíò_74-5" data-name="Áåçûìÿííûé ãðàäèåíò 74" x1="-1265.49" y1="125.67" x2="-1256.19" y2="125.67" xlink:href="#_Áåçûìÿííûé_ãðàäèåíò_74"/>
    <linearGradient id="_Áåçûìÿííûé_ãðàäèåíò_415-4" data-name="Áåçûìÿííûé ãðàäèåíò 415" x1="-5977.35" y1="159.31" x2="-5990.22" y2="133.47" gradientTransform="translate(-6167.15 -1222.24) rotate(-169.37) scale(1.07 -1) skewX(.49)" xlink:href="#_Áåçûìÿííûé_ãðàäèåíò_415"/>
    <linearGradient id="_Áåçûìÿííûé_ãðàäèåíò_409-3" data-name="Áåçûìÿííûé ãðàäèåíò 409" x1="4967.67" y1="129.69" x2="4976.38" y2="182.91" gradientTransform="translate(-5105.07 -1022.89) rotate(10.63) scale(1.07 1) skewX(-.49)" xlink:href="#_Áåçûìÿííûé_ãðàäèåíò_409"/>
    <linearGradient id="_Áåçûìÿííûé_ãðàäèåíò_409-4" data-name="Áåçûìÿííûé ãðàäèåíò 409" x1="4966.66" y1="129.83" x2="4975.37" y2="183.06" gradientTransform="translate(-5105.07 -1022.89) rotate(10.63) scale(1.07 1) skewX(-.49)" xlink:href="#_Áåçûìÿííûé_ãðàäèåíò_409"/>
  </defs>
  <g class="cls-61">
    <g id="Camada_1" data-name="Camada 1">
      <circle class="cls-36" cx="114.22" cy="117.77" r="108.47"/>
      <g class="cls-63">
        <g>
          <g>
            <g>
              <g>
                <g>
                  <path class="cls-51" d="M204.84,322.46c-2.71-35.79-6.34-62.66-6.34-62.66,8.43-51.47-7.97-66.18-7.97-66.18l-23.85,61.03-2.32,73.98s3.26,8.12,5.58,18.27c1.01,4.43,4.4,7.47,8.23,7.28l3.66-.18c13.76-.69,24.26-15.07,23.02-31.54Z"/>
                  <path class="cls-57" d="M179.31,352.31c1.86-27.66-1.94-97.7-1.94-97.7l-13,74.03s2.95,7.35,5.24,16.82c1.21,5.02,5.47,8.04,9.7,6.86h0Z"/>
                  <g>
                    <path class="cls-18" d="M168.65,193l1.68,27.26,1.71,27.92c15.02,1.98,21.15.98,27.7-2.39,6.66-3.43,10.3-5.72,10.3-5.72-12.24-37.36-14.35-52.57-20.42-56.75l-4.5,5.12-16.46,4.56Z"/>
                    <path class="cls-29" d="M210.43,237.24l1.98,3.85s-11.9,13.38-36.38,9.55v-3.91c9.84,1.96,25.35-.9,34.4-9.49Z"/>
                    <path class="cls-48" d="M149.24,325.35l1.22,4.34,19.87-.62c-.43-5.37.72-12.08,0-18.56-5.16-46.61,8.73-68.14,8.73-68.14,0,0,4.22-13.04,3.29-21.62-.43-3.94.6-8.38,1.83-12.03,2.21-6.55,3.51-13.31,3.88-20.14h0c-3.33,3.17-7.85,17.19-7.85,17.19l-8.23,6.27-22.74,113.32Z"/>
                    <path class="cls-48" d="M133.8,377.37l9.55,1.75,20.56-6.21,2-3.52s-16.56,7.39-32.11,7.98Z"/>
                    <path class="cls-48" d="M149.24,338.79s16.09.26,25.1-4.74l3.14-4.99s-14.44,8.58-28.24,9.73Z"/>
                    <path class="cls-48" d="M139.49,369.61s27.88-.29,33.78-5.47l2.67-4.23s-30.87,9.41-36.44,9.7Z"/>
                    <g>
                      <g>
                        <path class="cls-14" d="M53.21,159.76v28.94h21.09l5.56,20.36,45.11,19.55,23.95-38.46-1.46-3.59v-19.49c-15.45-3.72-22.43-6.84-23.6-13.29h0s0-.02-.01-.02c-.03-.04-.04-.09-.02-.16-.05-.26-.08-.53-.1-.81,0,0-.04-2.93-.04-12.02l-1.86-1.45-.06-7.33-18.24-9.72-24.1-13.39-4.16-2.95-.23-.17s.01.07.02.11c.02.15.04.29.06.42.01.07.02.13.03.21l-1.83-1.02-2.55,2.98c.21,1.03.41,2.04.6,3.01.29,1.48.56,2.9.79,4.24.15.79.27,1.55.4,2.28.03.18.06.36.09.53.1.69.21,1.36.31,2.02.65,4.18,1.03,7.5,1.24,10.14.06.72.1,1.39.15,2.01.01.07.01.12.01.19.02.35.03.68.05.99.02.38.03.72.04,1.06.04,1.46.03,2.55.02,3.36,0,.28,0,.55-.02.83-.01.28-.02.56-.05.84-.01.15-.02.3-.03.44h0c-.17,2.29-.24,4.15-.3,5.55-.03.72-.09,1.45-.19,2.17-3.05,4.8-10.19,8.32-20.67,11.65Z"/>
                        <g>
                          <path class="cls-16" d="M74.07,145.94c-.02.59-.06,1.18-.13,1.76,33.68,33.97,41.73,26.07,47.97,8.3-.59-.52,1.99-1.04,1.48-1.57-.51-.53-.99-1.05-1.39-1.57v-12.36l-.15-.11-.07-8.4-18.24-9.72-30.21-16.78c.03.18.06.36.08.53.13.73-.15,1.58-.39,2.52-.1.41-.2.84-.25,1.3l-1.99-1.36c3.81,18.57,3.74,26.57,3.71,29.81-.01.55-.03,1.11-.08,1.66-.01.15-.02.3-.03.44h0c-.17,2.29-.24,4.15-.3,5.55Z"/>
                          <path class="cls-12" d="M70.78,108.47c.21,1.03.41,2.04.6,3.01.29,1.48.56,2.9.79,4.24.15.79.27,1.55.4,2.28.03.18.06.36.09.53.1.69.21,1.36.31,2.02.65,4.18,1.03,7.5,1.24,10.14.06.72.12,1.39.15,2.01.01.07.01.12.01.19.02.34.04.67.05.99.02.38.03.72.04,1.06.05,1.46.04,2.55.03,3.36-.01.28-.01.55-.03.83-.01.28-.02.56-.05.84-.01.15-.02.3-.03.44h0c25.06,20.94,32.11,26.26,38.05,26.21,6.83-.05,10.46-9.56,11.45-12.83h0s0-.02-.01-.02c-.03-.04-.04-.09-.02-.16-.05-.26-.08-.53-.1-.81,0,0-.04-2.93-.04-12.02l-1.86-1.45-.06-7.33-18.24-9.72-24.1-13.39-4.16-2.95-.21-.06-1.74-.39c.03.18.06.36.08.53.13.73-.16,1.58-.39,2.52-.1.4-.2.84-.25,1.29l-1.99-1.36Z"/>
                        </g>
                      </g>
                      <path class="cls-27" d="M39.58,358.57c-3.63,34.75-1.76,27.1-1.76,27.1,0,0,.66,7.28,23.8,13.33,16.36,4.26,36.88,7.91,59.2,7.91,53.88,0,57.86-12.09,57.86-12.09l-2.12-51.89c.17-2.52.27-4.15.27-4.15l.65-9.73-2.86-9.35s1.65-25.67,1.86-34.69c.22-9.03-.55-28.73,2.47-34.56,7.08-13.64,2.9-40.73,2.9-40.73,1.93-6.79,7.77-26.41,7.77-26.41,0,0-4.77-2.5-13.46-6.72-1.53-.74-43.36-16.99-48.59-17.65-1.29,8.29.85,17.18-1.86,23.53-5.23,12.25-9.02,18.92-9.02,18.92-2.88-2.69-21.3-14.97-24.31-18.14-7.2-7.57-17.85-13.74-24.11-30.01-.71.38-10.86,2.77-11.65,3.19-4.14,2.21-9.3,4.96-15.7,8.33C10.3,180.91,1.43,188.7,1.43,188.7c15.12,1.36,26.26,8.52,33.54,15.24,6.83,6.29,10.29,12.19,10.5,12.56.01,0,.01.02.01.02l-9.09,66.77,3.65,63.09-2.04,4.41,1.08,2.21.49,5.56Z"/>
                      <path class="cls-48" d="M37.82,385.67s.66,7.28,23.8,13.33l.52-29.67c14.6,4.92,37.66,9.65,38.37,9.8-30.89-9.61-38.6-18.82-38.6-18.82l-5.95-65.66c39.5.78,44.01-8.69,44.01-8.69-16.48-2.46-26.86-10.07-38.84-17.59-13.43-17.54-12.33-56.14-28.7-65.12,8.7,5.93,8.63,15.03,8.72,15.42.01,0,.82.96.82.96l-5.59,63.67,3.65,63.09-2.04,4.41,1.08,2.21.49,5.56c-3.63,34.75-1.76,27.1-1.76,27.1Z"/>
                    </g>
                  </g>
                  <g>
                    <path class="cls-51" d="M18.43,359.96c4.99-.05,9.24-3.55,10.13-8.35,2.24-12.02,8.04-47.64,10.36-60.43,3.08-16.97,5.7-23.89,4.57-59,2.12-7.06.93-28.4-24.17-28.4-27.12,0-23.91,21.34-22.88,29.85.59,4.87,2.47,10.86.52,20.18-1.96,9.32-5.65,33.84-5.5,59.09v.1c.07,10.05.44,34.46.73,41.73.12,3.07,2.73,5.48,5.88,5.44l20.36-.21Z"/>
                    <path class="cls-32" d="M-.95,360.18c0-9.15-2.81-48.39,2.53-76.43,5.34-28.04,4.93-37.46,2.87-58.64-2.05-21.17,5.91-30.41,16.3-31.49-27.12,0-25.33,31.49-24.31,40,.59,4.87,2.47,10.86.52,20.18-1.96,9.32-5.65,33.84-5.5,59.09v.1c.07,10.06.44,34.48.73,41.75.12,3.06,2.72,5.46,5.86,5.44h1Z"/>
                  </g>
                  <path class="cls-4" d="M-5.92,248.21c-.39,1.94.63,3.78.31,5.72,9.13,3.62,21.13,6.66,35.73,6.66,5.58,0,11.53-.44,17.85-1.48.14-1.12.25-2.21.37-3.29.09-.86.18-1.71.24-2.54,2.26-25.48-3.09-36.76-3.09-36.76,0,0-14.31-25.14-44.06-27.82l-2.36,2.54s-.84,3.66-1.5,6.7c-2.56,11.81-2.36,35.79-2.36,35.79l-2.46,6.33c.31,2.5,2.89,7.1,2.89,7.1-.06.31-1.51.73-1.57,1.04Z"/>
                  <path class="cls-48" d="M-7.25,240.07c.32,2.5,2.9,7.11,2.9,7.11,5.47,3.3,20.32,5.3,20.9,5.37-15.33-3.65-23.79-12.48-23.79-12.48Z"/>
                </g>
                <path class="cls-29" d="M-8.69,252.64c.99.44,2.01.87,3.08,1.29,9.13,3.62,21.13,6.66,35.73,6.66,5.58,0,11.53-.44,17.85-1.48,1.03-.16,2.06-.34,3.11-.54l-1.3-5.51c-.41.07-.81.15-1.21.21-22.95,4.1-41.03-.15-53.11-5.18-.66-.27-1.31-.55-1.93-.84l-2.23,5.38Z"/>
              </g>
              <path class="cls-48" d="M125.01,155.44s4.31,4.35,12.58,9.09c0,0,10.01,10.05,10.51,21.82,0,0-18.51-5.2-21.82-4.31,0,0,.64-4.85.4-13-.25-8.15-1.65-11.77-1.65-11.77v-1.84Z"/>
              <path class="cls-4" d="M123.87,153.78s4.93,2.72,11.63,7.93c0,0,12.57,10.2,13.06,21.97,0,0-18.61-2.05-22.55-1.27-.12.02-.22.05-.32.07,0,0,1.22-5.29.97-13.44-.25-8.15-1.65-11.77-1.65-11.77l-.71-1.78-.43-1.71Z"/>
              <g>
                <path class="cls-3" d="M70.87,227.91c.38-.09.77-.18,1.17-.25.01,0,.03,0,.05,0,.57.44,1.09.92,1.56,1.45-.52-.08-1.05-.13-1.6-.15-1.9-.07-3.7.25-5.33.87,1.18-.85,2.59-1.52,4.15-1.92"/>
                <path class="cls-23" d="M71.71,232.29c-2.15-1.06-4.4-1.51-6.52-1.41,1.83-.85,3.92-1.29,6.14-1.21,1.09.04,2.15.21,3.15.49.5.7.91,1.46,1.22,2.25-.48.5-1.01.96-1.57,1.4-.74-.57-1.55-1.08-2.42-1.51"/>
                <path class="cls-50" d="M74.48,230.16c.83.23,1.63.54,2.37.91-.76,1.01-1.67,1.94-2.72,2.74h0c.57-.43,1.09-.9,1.57-1.4-.31-.79-.72-1.55-1.22-2.25"/>
                <path class="cls-50" d="M74.13,233.8c.57-.43,1.09-.9,1.57-1.4.45,1.13.69,2.35.69,3.61-.66-.81-1.42-1.55-2.27-2.21"/>
                <path class="cls-3" d="M63.44,240.66s.05,0,.08,0c1.09,0,1.88-.73,1.88-1.74v-.02c0-.96-.79-1.72-1.8-1.72-.05,0-.11,0-.16,0v-1.16s.1,0,.14,0c1.98,0,3.47,1.24,3.47,2.9v.02c0,1.61-1.52,2.87-3.45,2.87-.06,0-.11,0-.17,0v-1.15Z"/>
                <path class="cls-3" d="M83.47,238.24c1.17-.26,1.33-.39,1.33-.77v-.02c0-.29-.3-.51-.87-.51-.29,0-.67.08-.94.19v-1.23c.25-.04.63-.1.92-.1,1.38,0,2.37.71,2.37,1.78v.02c0,1.17-.88,1.5-2.24,1.8-1.13.25-1.24.42-1.24.75v.02c0,.34.37.55.98.55.77,0,1.28-.28,1.89-.72l.88.92c-.81.63-1.72.94-2.74.94-1.46,0-2.48-.66-2.48-1.83v-.02c0-1.03.77-1.46,2.14-1.77"/>
                <path class="cls-3" d="M80.06,238.76c-.12-.62-.52-1.03-1.13-1.03s-1.01.41-1.1,1.03h2.23ZM78.93,236.63c1.52,0,2.58,1.14,2.58,2.51v.02c0,1.48-1.16,2.5-2.72,2.5-.04,0-.19,0-.24,0v-1.1s.18,0,.22,0c.66,0,1.13-.32,1.27-.95h-3.6c0-.13-.02-.21-.02-.34v-.02c0-1.37.76-2.62,2.5-2.62"/>
                <path class="cls-3" d="M71.74,239.01c0-1.31.76-2.33,2.37-2.33s2.38,1.02,2.38,2.33v2.56h-1.49v-2.65c-.03-.48-.21-1.05-.88-1.05s-.87.57-.89,1.05v2.65h-1.48v-2.56Z"/>
                <path class="cls-3" d="M69.31,236.66c.07,0,.29,0,.35,0v1.17c-.29,0-.68.05-.86.15-.26.14-.39.38-.4.71.35-.04.75-.07,1.1-.08,1.41-.04,2.11.45,2.25,1.23,0,.01,0,.03,0,.04,0,0,0,.01,0,.02.01.07.02.15.02.24v.02c0,.96-.81,1.48-1.79,1.48-.72,0-1.22-.24-1.57-.61v.56h-1.43v-2.84c0-1.31.71-2.08,2.32-2.08M68.4,239.85c.13.71.82.81.98.82,1.12.06,1.16-.74.79-.99-.51-.33-1.77-.14-1.77-.14,0,.05-.01.17,0,.31"/>
              </g>
              <g>
                <path class="cls-48" d="M69.45,151.37l-12.53,5.62s1.5,21.95,12.87,31.02l21.42-5.77s-15.08-14.27-20.2-30.34c-.19-.61-.97-.88-1.56-.54Z"/>
                <path class="cls-4" d="M72.58,149.63l-15.87,6.54c-.2.1-.61.76-.58.96.37,2.57,3.21,21.4,13.7,29.77l22.36-3.94s-14.92-16.9-19.61-33.33Z"/>
              </g>
            </g>
            <rect class="cls-46" x="-13.65" y="332.01" width="270.28" height="101.51"/>
            <g>
              <path class="cls-22" d="M140.57,366.66s0,0,.01,0c.41.03.84.06,1.29.09,0,0,0,0,.01,0,.54.04,1.1.07,1.66.1h0c.28.02.56.03.85.04.1,0,.2.01.29.02.19,0,.37.02.56.02h.01c.18.01.37.02.55.02h0c.28.01.55.02.82.03.09,0,.18,0,.28,0,.18,0,.35.01.52.02.35,0,.68.02,1,.03.16,0,.31,0,.46,0,1.43.02,2.46,0,2.63-.07.13-.06.26-.13.37-.22.04-.03.08-.06.11-.1.07-.07.13-.14.2-.21.27-.34.46-.76.58-1.12.16-.47.21-.85.21-.85,1.44-.06,3.09-.27,4.31-.57.82-.21,1.43-.45,1.67-.74.18-.22.37-.61.55-1.03.03-.07.06-.13.08-.2.05-.14.11-.28.16-.42.03-.06.05-.14.07-.2h0c.02-.07.05-.14.07-.2h0c.02-.07.04-.13.06-.19.16-.5.26-.87.26-.87,0,0,1.25,0,2.22-.59.97-.6,1.7-2.27,2.32-4.11.05-.15.09-.29.13-.42.01-.04.02-.09.03-.13.02-.08.03-.16.05-.24.01-.06.02-.11.02-.17,0-.06,0-.11.02-.17,0-.07,0-.13,0-.2-.02-.73-.38-.93-.38-.93,0,0,2.56-.64,5.3-2.73,2.74-2.09,4.72-4.68,3.91-6.17-.22-.41-.64-.69-1.16-.87-.05-.02-.1-.03-.16-.05-.02,0-.04-.01-.06-.01-.07-.02-.14-.04-.22-.05-.08-.02-.16-.04-.24-.05-.17-.03-.34-.04-.52-.05-.08,0-.17,0-.26,0,0,0,0,0-.01,0-.36,0-.73.04-1.1.11-.1.02-.18.04-.28.06-.09.02-.18.05-.27.07-.09.03-.18.06-.27.08-.18.06-.36.12-.52.2-.35.15-.67.34-.95.57-.25.2-.53.36-.83.51-1.93.95-4.66.99-4.66.99-2.87-.65-7.43-.91-7.43-.91-1.6-.87-6.97-2.43-6.97-2.43l-.09-1.41c2.61.67,10.67,1.16,13.12.23,2.45-.94,7.22-3.25,6.31-5.59-.22-.56-.53-.93-.93-1.17-1.25-.77-3.33-.28-5.66-.45-3.08-.23-9.96-1.17-11.03-1.28-1.08-.11-6.73-1.99-7.11-1.97-1.9.13-4.37.4-8.01.49-3.64.08-7.11,1.05-10.06,2.17-.96.36-2.11.73-3.49,1.04-.37.08-.58.12-.58.12-2.2.44-4.36.62-6.35.64-5.57.05-10.14,4.23-10.53,9.59l-.42,5.86-.15,2.08c2.03.58,5.12,2.25,7.16,2.02,1.92-.22,4.79.24,7.18,1.37.14.06.27.13.41.2,5.04,2.61,9.76,5.08,13.34,6.91.21.11.41.21.62.32.2.1.4.2.59.3.29.15.57.29.84.42.18.09.35.18.53.26.17.08.33.17.5.25.16.08.32.16.47.23.53.26.99.49,1.39.67.12.05.22.1.32.15.05.02.1.05.15.07.14.06.27.12.39.17.16.07.28.12.39.15.03.01.07.02.11.03.54.15,1.75.29,3.26.41Z"/>
              <path class="cls-25" d="M140.57,366.66s0,0,.01,0c.41.03.84.06,1.29.09,0,0,0,0,.01,0,.54.04,1.1.07,1.66.1h0c.28.01.56.03.85.04.1,0,.2.01.29.02.19,0,.37.01.56.02h.01c.19,0,.37.02.55.02h0c.28.01.55.02.82.03.09,0,.18,0,.28,0,.18,0,.35.01.52.02.35,0,.68.02,1,.03.16,0,.31,0,.46,0,1.43.02,2.46,0,2.63-.07.13-.06.26-.13.37-.22.04-.03.08-.06.11-.1.07-.07.13-.14.2-.21.06-.07.12-.16.17-.24-.23.03-.44.06-.58.05-5.37-.23-11.59-.67-12.88-1.15-3.54-1.3-15.38-7.79-19.94-10.17-6.17-3.41-12.84-1.1-15.9-4.31l-.15,2.08c2.03.58,5.12,2.25,7.16,2.02,1.92-.22,4.79.24,7.18,1.37.14.06.27.13.41.2,5.04,2.61,9.76,5.08,13.34,6.91.21.11.41.21.62.32.2.1.4.2.59.3.29.15.57.29.84.42.18.09.35.18.53.26.17.09.33.17.5.25.16.08.32.16.47.23.53.26.99.49,1.39.67.11.05.22.1.32.15.05.02.1.05.15.07.14.06.27.12.39.17.16.07.28.12.39.15.03.01.07.02.11.03.53.15,1.75.28,3.26.41Z"/>
              <path class="cls-25" d="M164.63,353.11s.34.19.38.88h0s-1.66.93-3.02.88c-1.31-.06-9.56-.78-10.07-.83,2.47-.14,9.17.48,10.19.16,1.03-.33,2.52-1.09,2.52-1.09Z"/>
              <path class="cls-25" d="M159.96,360.93h0s-9.94-.78-9.94-.78l10.21-.09s-.1.37-.26.86Z"/>
              <path class="cls-25" d="M152.79,365.33h0s-4-.83-4-.83l4.22-.02s-.05.38-.21.85Z"/>
              <path class="cls-25" d="M173.84,344.21c.81,1.48-1.17,4.08-3.91,6.17-2.74,2.09-5.3,2.73-5.3,2.73,0,0,.36.2.38.93,0,.06,0,.13,0,.2,0,.06,0,.11-.02.17,0,.06-.01.11-.02.17-.01.08-.03.15-.05.24-.01.04-.02.09-.03.13-.03.13-.07.27-.12.42-.62,1.84-1.34,3.51-2.32,4.11-.97.6-2.22.59-2.22.59,0,0-.1.37-.26.87-.02.06-.04.12-.06.19h0c-.02.07-.05.13-.07.2h0c-.02.07-.05.13-.07.21-.05.14-.11.28-.16.42-.03.07-.05.14-.08.2-.18.42-.37.81-.55,1.03-.23.28-.85.53-1.67.74,0,0,1.55-2.03,1.05-3.46.03.05.25.34,1.49-.56,1.34-.98,3.81-4.76,3.06-6l-.79.3c1.21-.98.29-4.83.29-4.83,0,0,.7-.25,1.34-.66-14.36-1.76-20.15-9.55-20.15-9.55l4.26,1.8.09,1.41s5.37,1.57,6.97,2.43c0,0,4.56.26,7.43.91,0,0,2.72-.04,4.65-.99.3-.14.58-.31.83-.51.29-.22.61-.41.95-.56.17-.07.35-.14.52-.2.09-.03.18-.06.27-.08.09-.03.18-.05.27-.07.1-.02.19-.04.28-.06.37-.07.74-.1,1.1-.11,0,0,0,0,0,0,.09,0,.18,0,.26,0,.18,0,.35.02.52.05.08.01.16.02.24.05.07.01.15.03.22.05.02,0,.04,0,.06.02.06.02.11.03.16.05.52.18.94.47,1.16.87Z"/>
              <polygon class="cls-25" points="143.59 339.15 147.9 341.85 147.84 340.95 143.59 339.15"/>
              <path class="cls-25" d="M166.34,334.42c-.99.15-10.85,1.85-17.52-.44-6.67-2.3-8.23-1.79-10.75-1.77-6.25.07-14.82,1.74-17.1,2.21,1.38-.31,2.54-.68,3.49-1.04,2.95-1.11,6.42-2.08,10.06-2.17,3.64-.09,6.11-.36,8.01-.49.37-.03,6.03,1.85,7.11,1.97,1.08.11,7.95,1.06,11.03,1.28,2.33.17,4.41-.33,5.66.45Z"/>
            </g>
            <g id="Laptop">
              <g>
                <path class="cls-5" d="M223.61,369.52c-2.66.47-156.58,21.13-156.58,21.13-3.69.45-6.63.04-7.52-1.05l-31.21-38.12c-.71-.86,4.32-2.95,4.32-2.95l150.29-15.63c7.6-.56,11.2.3,12.98,2.16l33.04,32.92c-.81.43-1.17.81-5.31,1.55Z"/>
                <path class="cls-8" d="M223.61,369.52c-2.66.47-156.58,21.13-156.58,21.13-3.69.45-6.63.04-7.52-1.05l-31.21-38.12c-.71-.86,4.32-2.95,4.32-2.95l150.29-15.63c7.6-.56,11.2.3,12.98,2.16l33.04,32.92c-.81.43-1.17.81-5.31,1.55Z"/>
                <path class="cls-42" d="M225.98,368.95l-155.95,20.33c-3.69.45-6.63.04-7.52-1.05l-33.06-38.05c-.71-.86,1.67-3.34,4.51-3.58l151.98-16.22c7.6-.56,11.2.3,12.98,2.16l30.4,34.51c.58.61-1.22,1.62-3.34,1.88Z"/>
              </g>
              <path class="cls-28" d="M154.63,355.75c-.46-2.01-6.26-3.76-12.96-3.9-6.69-.14-11.75,1.38-11.29,3.39.46,2.01,6.26,3.76,12.96,3.9,6.69.14,11.75-1.38,11.29-3.39Z"/>
            </g>
            <g>
              <path class="cls-51" d="M39.4,350.12c9.82.51,16.49,1.81,26.67.95,9.98-.84,17.62-3.66,23.16-4.5.12-.02.23-.04.33-.06,5.13-.96,2.37-17.2-7.22-18.31-9.59-1.11-50.72-20.63-54.89-21.07-1.85-.2-38.48,2.58-35.76,12.49.88,3.23-1.68,11.57.23,14.25,3.45,4.85,20.88,10.67,25.59,11.67.42.09.84.16,1.26.21.47.09.93.19,1.41.28.93.18,18.58,4.05,19.22,4.09Z"/>
              <path class="cls-57" d="M39.4,350.12c9.82.51,16.49,1.81,26.67.95,9.98-.84,17.62-3.66,23.16-4.5-2.38-.32-5.94,3.37-9.73,2.4-6.76-1.73-22.72-2.32-42.38-3.34-6.59-.34-12.65-3.17-17.8-3.94-5.69-.86-23.61-6.16-27.41-7.83,3.45,4.85,9.91,8.43,25.59,11.67.13,0,.19,0,.19,0,.36.07,18.34,4.29,19.1,4.37.19.02,1.96.18,2.6.21Z"/>
            </g>
            <g>
              <path class="cls-57" d="M76.9,325.43s-.95-16.02,1.93-17.76,4.15.96,7.78,1.88,2.28-6.21,5.63-7.51,2.48,2.96,5.31,2.34,1.92-5.73,6.46-6.65,3.02,2.38,5.99,1.68-.26-.59,2.27.99,7.11,9.59,5.73,16.31c-1.39,6.72,1.33,15.64-12.77,23.28-14.1,7.64-24.72,6.02-26.69-3.26-1.97-9.28-1.63-11.31-1.63-11.31Z"/>
              <g>
                <path class="cls-57" d="M126.62,291.28c-.22-.1-1.65-3.79-3.84-4.03s-12.5,4.93-15.75,11.22,6.49,7.35,8.49,5.58c2-1.77,9.34-8.34,9.68-8.92s1.43-3.84,1.43-3.84Z"/>
                <path class="cls-51" d="M123.49,287.03s10.89,3.39,13.32,9.32-2.99,7.68-6.64,5.84c-6.43-3.23-10.85-7.23-11.33-7.66s-.23-7.26,4.65-7.5Z"/>
              </g>
              <g>
                <path class="cls-47" d="M133.74,316.43c-.08.22,1.45,3.59.15,5.33s-17.26,7.11-23.67,5.48c-6.41-1.63,3.44-12.16,5.97-12.48s13.38.16,14,.28,3.55,1.4,3.55,1.4Z"/>
                <path class="cls-24" d="M124.53,315.16s8.7-3.12,13.29.42c4.56,3.52,2.04,7.92-1.24,8.4-5.76.84-10.65-.05-11.17-.14s-3.88-5.84-.89-8.68Z"/>
              </g>
              <g>
                <path class="cls-38" d="M111.6,290.94c-.24-.05-2.55-3.29-4.73-3.01-2.19.28-8.97,5.24-10.57,12.08-1.61,6.85,8.12,5.62,9.63,3.44s5.05-7.8,5.24-8.44.43-4.06.43-4.06Z"/>
                <path class="cls-51" d="M108.67,288.08s13.16,7.57,14.58,13.8-4.22,7.11-7.52,4.73c-5.8-4.2-12.61-11.74-13.02-12.24s1.11-6.83,5.96-6.29Z"/>
              </g>
              <g>
                <path class="cls-57" d="M99.36,294.05c-.24.05-3.68-2.05-5.58-.97s-6.15,8.22-4.86,15.11,9.76,2.07,10.27-.51,1.5-9.08,1.42-9.75-1.24-3.89-1.24-3.89Z"/>
                <path class="cls-51" d="M97.87,292.34s9.83,8.98,9.4,14.88-5.76,6-8.09,3.39c-4.09-4.58-7.67-12.01-7.9-12.51s2.35-6.86,6.59-5.76Z"/>
              </g>
              <g>
                <path class="cls-38" d="M88.02,302.16c-.23.06-3.33-1.39-5.25-.33s-6.61,7.33-6,12.94,9.14.89,9.86-1.29,2.25-7.66,2.23-8.2-.84-3.12-.84-3.12Z"/>
                <path class="cls-51" d="M87.35,300.72s9.83,8.98,9.4,14.88-5.76,6-8.09,3.39c-4.09-4.58-8.18-12.37-8.41-12.87s2.86-6.49,7.1-5.4Z"/>
              </g>
            </g>
            <g>
              <path class="cls-57" d="M214.14,308.83s-3.85-15.58-6.99-16.43-3.51,2.1-6.56,4.02-3.91-5.29-7.36-5.58-1.4,3.54-4.17,3.76-3.44-4.93-7.87-4.52c-4.43.42-2.06,3.14-4.99,3.32s.07-.64-1.79,1.6-3.69,11.2-.44,17.23c3.25,6.03,3.38,15.33,18.53,18.61,15.15,3.28,24.4-1.29,23.47-10.73-.93-9.44-1.83-11.28-1.83-11.28Z"/>
              <g>
                <path class="cls-57" d="M158.38,289.74c.17-.16.4-4.1,2.33-4.95s12.89,1.15,17.71,6.23-3.77,8.88-6.13,7.76-11-5.31-11.48-5.77-2.44-3.27-2.44-3.27Z"/>
                <path class="cls-51" d="M160.99,284.4s-8.77,6.08-9.26,12.44c-.48,6.31,4.99,6.49,7.79,3.69,4.93-4.92,7.8-10.01,8.12-10.55s-2.12-6.74-6.66-5.58Z"/>
              </g>
              <g>
                <path class="cls-47" d="M159.27,315.82c.14.19-.27,3.85,1.43,5.14s17.89,1.87,23.27-1.51-6.72-10.65-9.13-10.23-12.2,3.97-12.73,4.26-2.83,2.35-2.83,2.35Z"/>
                <path class="cls-24" d="M167.32,311.98s-8.88-.5-12.04,4.2c-3.14,4.67.46,8.16,3.6,7.68,5.52-.85,9.73-3.09,10.18-3.32s1.83-6.69-1.74-8.55Z"/>
              </g>
              <g>
                <path class="cls-57" d="M172.03,285.13c.21-.11,1.36-3.87,3.45-4.23,2.08-.36,9.75,2.45,13.23,8.54,3.48,6.09-5.78,7.69-7.8,6.03-2.02-1.65-6.92-6.02-7.28-6.58s-1.59-3.76-1.59-3.76Z"/>
                <path class="cls-51" d="M174.78,280.72s-9.82,11.1-9.28,17.46,5.96,5.6,8.27,2.38c4.07-5.67,8.09-14.83,8.32-15.41s-3.02-6.32-7.3-4.42Z"/>
              </g>
              <g>
                <path class="cls-57" d="M184.15,284.62c.23-.02,2.76-3.01,4.82-2.52s8.05,6.1,8.9,13.06c.85,6.96-8.32,4.76-9.54,2.44s-4.05-8.26-4.17-8.91-.01-4.08-.01-4.08Z"/>
                <path class="cls-51" d="M186.28,282.35s-6.36,11.39-4.23,16.91,7.04,4.09,8.4.94c2.4-5.55,3.31-13.25,3.37-13.8s-3.98-6.3-7.54-4.04Z"/>
              </g>
              <g>
                <path class="cls-57" d="M198.23,289.47c.23,0,1.32-2.62,3.39-2.15s8.21,5.12,9.3,10.66c1.09,5.54-8.1,3.46-9.4,1.58s-4.31-6.68-4.45-7.2,1.17-2.88,1.17-2.88Z"/>
                <path class="cls-51" d="M198.28,287.45s-6.36,11.39-4.23,16.91c2.11,5.48,7.04,4.09,8.4.94,2.4-5.55,3.85-14.16,3.91-14.71s-4.53-5.39-8.08-3.13Z"/>
              </g>
            </g>
            <g id="Laptop-2" data-name="Laptop">
              <g>
                <path class="cls-6" d="M278.85,293.13c-2.82,0-167.05,12.02-167.05,12.02-3.94.36-7.22,2.07-8.38,4.36l-40.63,80.06c-.92,1.81,4.2,4.02,4.2,4.02l161.15-20.06c8.19-1.44,12.26-4.19,14.52-8.18l41.73-71.1c-.81-.53-1.13-1.11-5.53-1.11Z"/>
                <path class="cls-8" d="M278.85,293.13c-2.82,0-167.05,12.02-167.05,12.02-3.94.36-7.22,2.07-8.38,4.36l-40.63,80.06c-.92,1.81,4.2,4.02,4.2,4.02l161.15-20.06c8.19-1.44,12.26-4.19,14.52-8.18l41.73-71.1c-.81-.53-1.13-1.11-5.53-1.11Z"/>
                <path class="cls-17" d="M281.33,293.4l-166.51,13.28c-3.94.36-7.22,2.07-8.38,4.36l-40.63,80.06c-.92,1.81,1.79,3.47,4.84,2.98l160.35-16.96c8.19-1.44,12.26-4.19,14.52-8.18l39.12-73.17c.74-1.3-1.05-2.58-3.31-2.37Z"/>
              </g>
              <path class="cls-28" d="M201.25,340.75c-.85,3.84-7.48,8.93-14.8,11.35-7.32,2.43-12.57,1.28-11.72-2.56.85-3.84,7.48-8.93,14.8-11.35,7.32-2.43,12.57-1.28,11.72,2.56Z"/>
            </g>
          </g>
          <g>
            <g>
              <path class="cls-45" d="M72.25,66.19c-1.27,15.76.65,28.15.65,28.15l3.41,15.64s.93,13.27,1.52,15.89c.59,2.63,7.25,12.49,21.4,24.14.54.45,1.08.86,1.62,1.26h0c3.69,2.7,7.1,4.15,8.68,4.91,1.8.87,8.77,1.82,9.9,1.37,1.12-.45,9.93-8.05,16.72-14.01,6.79-5.95,11.18-11.03,13.8-24.29.48-2.42.91-4.43,1.31-6.11,1.78-7.5,2.81-8.43,3.8-10.59.34-.75.81-1.91,1.3-3.35.11-.32.22-.66.33-1.02.13-.42.26-.85.39-1.31.98-3.49,1.81-7.9,1.49-12.1-.54-7.24-2.11-13.39-3.51-19.75-1.94-8.8-10.24-16.71-20.68-21.68-8.41-4-18.2-6.09-27.17-5.19-23.9,2.39-33.7,12.28-34.97,28.04Z"/>
              <path class="cls-41" d="M72.25,66.19c-1.27,15.76.65,28.15.65,28.15l3.41,15.65s.93,13.27,1.52,15.89c.59,2.63,7.25,12.49,21.4,24.14.54.45,1.08.86,1.62,1.26-.28-.42-11.66-17.48-11.36-27.24.3-9.88,4.92-24.93,4.92-24.93,5.93,3.63,20.93,6.58,29.26,7.02-.52-2.61,2.53-12.53,2.53-12.53l-16.4-6.64s-12.7-6.01-11.48-20.67c.38-4.67,1.41-12.46,3.73-15.43,9.15-11.72,18.81-11.97,32.34-7.49h-.02c-8.41-4.01-18.2-6.1-27.17-5.2-23.9,2.39-33.7,12.28-34.97,28.04Z"/>
              <path class="cls-44" d="M133.02,109.64c1.17-1.67,6.15-.92,9.63-.31,3.47.6,7.11,1.78,8.62,3.82,1.78-7.5,2.81-8.43,3.8-10.59.42-.91,1.03-2.45,1.63-4.37l-1.42-.67-5.06-.95-8.62-.08-3.14,1.46c-2.41,1.75-4.6,7.45-5.44,11.7Z"/>
              <path class="cls-39" d="M137.92,97.56s2.13-.34,2.77-.32c6.23.12,10.67.77,12.1,1,2.19.36,2.69.84,2.97,1.06.07.06.23.23.42.46.14-.31.27-.64.41-.99.16-.41.33-.83.49-1.28-.31-.78-.73-1.47-1.34-1.6-6.66-1.39-12.98-1.84-14.06-1.33-1.08.51-3.77,3.02-3.77,3.02Z"/>
              <path class="cls-39" d="M126.94,90.52c-.3.24-21.58-4.57-21.99-4.61-1.14.53-4.82,2.03-8.31,5.33-.41.39,4.3-2.3,7.82-2.15,1.21.05,16.74,3.7,18.66,4.18,1.93.48,3.04.84,3.04.84l.77-3.6Z"/>
              <path class="cls-37" d="M119.41,102.71s-.88-4.57-1.77-5.31c-.89-.75-8.07-3.04-10.16-3.64-.68-.2-6.97,1.6-6.97,1.6l.87,1.73.93-.37,17.11,5.99Z"/>
              <g>
                <path id="SVGID" class="cls-64" d="M119.41,102.71s-2.9.64-3.48.63c-.59,0-8.02-1.09-9.5-1.92-1.05-.59-1.93-1.06-3-2.31-.58-.67-.96-2.34-1.08-2.6,0,0,3.48-1.28,5.23-1.4.79-.05,7.3,1.76,9.55,2.56.49.18,2.19,3.6,2.29,5.03Z"/>
                <g class="cls-62">
                  <g>
                    <path class="cls-30" d="M108.25,100.82c-.33,1.87,1.1,3.68,3.19,4.03,2.09.36,4.05-.87,4.38-2.74.33-1.87-1.1-3.68-3.19-4.03-2.09-.36-4.05.87-4.38,2.74Z"/>
                    <path class="cls-31" d="M109.66,101.06c-.21,1.17.69,2.3,1.99,2.52,1.31.22,2.53-.55,2.74-1.72.21-1.17-.69-2.3-1.99-2.52-1.31-.22-2.53.55-2.74,1.72Z"/>
                  </g>
                </g>
              </g>
              <path class="cls-37" d="M135.9,105.69s3.11-3.1,3.8-3.47c.69-.37,9.28.6,9.28.6l3.39,3.43-1.29,1.12-.62-.59-14.56-1.09Z"/>
              <g>
                <path id="SVGID-3" data-name="SVGID" class="cls-64" d="M135.9,105.69s2.67-2.52,4.41-3.01c1.07-.3,7.85,1.16,7.85,1.16l2.32,2.79s-.87,1.31-1.27,1.56c-.76.47-2.5.9-3.31,1.11-2.12.54-4.66-.29-6.92-.71-1.11-.21-3.08-2.89-3.08-2.89Z"/>
                <g class="cls-60">
                  <g>
                    <ellipse class="cls-34" cx="143.68" cy="107.86" rx="3.41" ry="3.8" transform="translate(15.83 234.09) rotate(-81.53)"/>
                    <path class="cls-31" d="M141.34,107.42c-.23,1.16.63,2.29,1.93,2.53s2.52-.5,2.75-1.65-.63-2.29-1.93-2.53-2.52.5-2.75,1.65Z"/>
                  </g>
                </g>
              </g>
              <g>
                <g>
                  <path class="cls-2" d="M119.65,122.94c.04.08.01,2.16,1.87,3.69.91.75,2.06,1.48,3.45,1.98.42.15.87.29,1.33.39,2.07.47,8.76-.65,6.65-4-2.15.77-6.7,1.04-13.31-2.06Z"/>
                  <path class="cls-7" d="M121.52,126.63c.91.75,2.06,1.48,3.45,1.98.01-.04.22-.69-1-1.56-1.26-.89-2.45-.43-2.45-.43Z"/>
                </g>
                <path class="cls-55" d="M130.94,117.39c-1.38,3.18,2.16,5.4,1.96,7.75.29.65-4.14,3.64-5.02,3.96.79.01,1.55-.19,2.29-.34,4.4-1,4.2-3.62,4.16-3.41.36-2.2-3.19-3.25-3.39-7.96Z"/>
              </g>
              <g>
                <path class="cls-35" d="M121.41,144.54c-2.6.14-10.02-1.88-10.02-1.88,0,0,2.14,1.99,4.71,2.47s3.83.16,5.31-.59Z"/>
                <g>
                  <g>
                    <path class="cls-49" d="M105.04,128.45s.08.44.31,1.15c.56,1.71,1.97,5.02,5.24,7.75h0c.61.52,1.28,1.01,2.03,1.47,4.13,2.55,11.5,2.85,13.15,2.22.47-.18.99-.52,1.54-.95,1.77-1.41,3.72-3.85,4.73-5.36-.26.02-.55.04-.86.05-.44.01-.92.02-1.45,0-6.14-.1-17.56-1.83-24.68-6.33Z"/>
                    <path class="cls-53" d="M105.04,128.45s.08.44.31,1.15c0,0,5.55,5.55,13.8,6.58,8.24,1.02,11.72-.4,11.72-.4l.29-1.01c-.44.01-.92.02-1.45,0-6.14-.1-17.56-1.83-24.68-6.33Z"/>
                  </g>
                  <path class="cls-10" d="M110.59,137.35h0c.61.52,1.28,1.01,2.03,1.47,4.13,2.55,11.5,2.85,13.15,2.22.47-.18.99-.52,1.54-.95-6.77-2.83-16.71-2.73-16.71-2.73Z"/>
                </g>
              </g>
              <path class="cls-28" d="M141.65,106.88c-.07.38.21.75.63.83s.83-.16.9-.54-.21-.75-.63-.83-.83.16-.9.54Z"/>
              <path class="cls-28" d="M110.13,100.26c-.07.38.21.75.63.83s.83-.16.9-.54-.21-.75-.63-.83-.83.16-.9.54Z"/>
            </g>
            <g>
              <path class="cls-56" d="M65.44,67.05c-.5,3.46-.45,12.5.39,22.93.59,7.38,1.57,15.46,3.02,22.76.04.2.08.41.12.63.46,2.33,3.95,2.11,4.09-.26h0s.19-3.02.19-3.02c0,0,2.22-23.4,5.28-22.72,2.59.57,1.84,11.04,1.55,14.26-.05.6.17,1.19.61,1.61l.18.17c1.21,1.16,3.26.48,3.5-1.16.59-4.09,1.62-10.5,2.93-15.28,1-3.67,6.67-7.44,11.16-9.6.65-.31,1.28-.59,1.86-.83.28-.11,1.06-.36,1.83-1.15h0c1.65-1.7,3.21-5.9-.59-16.71-.44-1.27.45-2.6,1.82-2.68,2.81-.17,7.81-.22,15.15.61,4.34.49,9.49,1.28,15.48,2.54,6.82,1.43,15.14,3.68,17.65,4.37.48.13.91.42,1.17.84,6.07,9.34,5.53,25.91,5.53,25.91,0,0,1.57-3.34.92-5.68,0,0,.2-.36.49-1,.8-1.8,2.28-5.79,1.81-9.98-.03-.26-.01-.52.06-.77.67-2.25,4.06-14.16,1.94-18.72,0,0-2.6-8.54-15.03-15.39-.68-.37-3.2-.7-4.21-.82-.27-.03-.53-.11-.77-.25-1.07-.6-4.45-2.39-8.25-3.48-.45-.13-4.51-2.35-11.9-3.5-.01,0-.02,0-.03,0h-.02c-1.15-.18-2.38-.33-3.68-.44,0,0-.02,0-.03,0-.01,0-.03,0-.04,0-6.88-.59-15.94-.14-27.03,3.06-15.43,4.46-16.73,12.21-16.15,15.53.14.8-.25,1.59-.96,2.01-2.7,1.62-8.56,6.21-10.02,16.23Z"/>
              <path class="cls-9" d="M152.38,63.71c6.52,9.2,6,26.48,6,26.48,0,0,1.53-3.27.88-5.62,0,0,.2-.36.49-1,.11-.25.24-.55.37-.88,1.31-5.84.23-10.1.23-10.1.76-2.7,2.4-9.19,2.04-14.13-.51.95-1.19,1.88-2.02,2.7-1.7,1.63-3.8,2.67-6.33,2.73-.54,0-1.11-.06-1.64-.18Z"/>
              <path class="cls-1" d="M152.38,63.71c6.52,9.2,6,26.48,6,26.48,0,0,1.53-3.27.88-5.62,0,0,.2-.36.49-1,.11-.25.24-.55.37-.88,1.31-5.84.23-10.1.23-10.1.76-2.7,2.4-9.19,2.04-14.13-.51.95-1.19,1.88-2.02,2.7-1.7,1.63-3.8,2.67-6.33,2.73-.54,0-1.11-.06-1.64-.18Z"/>
              <path class="cls-1" d="M65.44,67.05c-.5,3.46-.45,12.5.39,22.93.59,7.38,1.57,15.46,3.02,22.76.08.41.17.85.27,1.33.44,2.22,3.77,2.01,3.91-.24l.04-.72.19-3.02s2.22-23.4,5.28-22.72c2.6.58,1.83,11.13,1.54,14.3-.05.57.16,1.13.58,1.54h0c1.24,1.19,3.33.35,3.36-1.34.07-4.34-.02-9.37.75-12.51,1.81-7.43,7.27-12.54,17.38-13.97h0c1.65-1.7,3.22-5.93-.63-16.82-.43-1.21.43-2.48,1.73-2.56,2.78-.17,7.83-.24,15.27.6,4.34.49,9.49,1.28,15.48,2.54,6.9,1.45,15.33,3.73,17.73,4.39.43.12.9.09,1.31-.08,4.58-1.95,6.22-3.95,8.95-7.39l-.16-.6c-.05-.16-.1-.33-.16-.5-4.76,3.08-8.28,6.57-12.29,6.84.44-.14.88-.32,1.33-.54,3.23-1.58,6.53-4.94,10.59-7.27,0,0,0,0,0,0-.32-.8-.71-1.63-1.16-2.48-.54-1.03-1.88-1.39-2.86-.75-4.8,3.17-7.25,6.41-12.55,8.1,5.17-2.81,8.03-7.16,13.84-9.98h0c-.35-.54-.73-1.07-1.12-1.59-.59-.78-1.7-1.01-2.57-.54-4.7,2.57-7.03,4.5-11.37,7.82,2.64-3.37,5.99-6.11,9.82-8.19,1.22-.66,1.38-2.28.32-3.17-1.35-1.13-2.78-2.01-4.24-2.49-.31-.1-.62-.2-.92-.31-3.11,4.96-9.48,8.45-15.55,10.02,4.96-2.65,9.18-4.78,12.75-8.06,1.06-.97.71-2.68-.64-3.21-4-1.55-7.58-3.34-12.43-6.13h0c-2-.76-5.09-1.74-9.23-2.38-.01,0-.02,0-.03,0h-.02c-1.15-.18-2.38-.33-3.68-.44,0,0-.02,0-.03,0-.01,0-.03,0-.04,0-6.88-.59-15.94-.14-27.03,3.06-15.52,4.48-16.74,12.3-16.14,15.59.14.76-.24,1.52-.92,1.92-2.68,1.59-8.61,6.18-10.07,16.26Z"/>
              <path class="cls-19" d="M65.44,67.05c-.5,3.46-.45,12.5.39,22.93.59,7.38,1.57,15.46,3.02,22.76.04.2.08.41.12.63.46,2.33,3.95,2.11,4.09-.26h0c-1.09-.28-1.93-1.27-2.25-3.42-4.21-29,4.57-48.36,4.57-48.36-3.91,11.99-4,41.11-4,41.11,1.9-30.46,12.56-44.3,12.56-44.3-4.09,9.15-5.05,23.28-5.05,23.28,2.21-8.27,11.48-22.13,12.19-23.19-5.51,8.47-6.68,22.44-6.68,22.44,2.32-9.43,11.36-23.63,13.78-20.8,5.84,6.85,3.94,15.52,3.94,15.52h0c1.77-1.82,3.43-6.52-1.49-19.13,0,0,5.77-1.02,17.86.34,4.34.49,9.49,1.28,15.48,2.54,8.13,1.71,18.39,4.58,18.39,4.58,6.52,9.2,5.96,26.55,5.96,26.55,0,0,1.57-3.34.92-5.68,0,0,.2-.36.49-1-.3-1.38-.52-2.87-.58-4.43-.3-7.58-5.4-16.6-5.4-16.6-6.78-4.72-14.11-7.29-14.11-7.29,6.23-5.55,9.54-11.98,9.64-12.18-13.41,16.27-25.53,8.49-25.03,7.95,4.67-5.03,16.57-7.62,16.57-7.62-13.72.7-18.45,6.27-23.26,8.05-4.81,1.78-11.87-1.91-11.55-2.17,11.61-9.4,28.93-7.76,28.93-7.76-13-2.67-24.06,2.15-30.34,4.5-6.29,2.35-5.52-2.42-5.52-2.42,19.39-8.86,36.12-3.42,36.12-3.42-18.66-7.41-41.63.93-41.63.93,16.15-10.23,35.17-5.51,35.17-5.51-22.91-7.14-42.9,4.75-42.9,4.75,2.71-3.83,20.2-10.95,33.77-10.15-.01,0-.03,0-.04,0-6.88-.59-15.94-.14-27.03,3.06-18.13,5.23-16.75,15.03-15.73,16.83,0,0-9.49,3.82-11.39,16.95Z"/>
              <path class="cls-11" d="M149.87,61.25s.35.04.82,0c3.23-1.58,6.53-4.94,10.59-7.27-.15.05-2.57.9-4.89,2.7-2.39,1.85-3.55,3.4-6.53,4.58Z"/>
              <path class="cls-21" d="M144.72,58.85s0,0,0,0c5.17-2.81,8.03-7.16,13.84-9.98-.08,0-2.77.31-6.99,3.72-2.44,1.97-3.35,3.44-6.86,6.26Z"/>
              <path class="cls-33" d="M140.65,42.14c-8.05-.97-19.91,2.1-25.67,6.84,6.41-3.3,16.57-6.18,25.67-6.84Z"/>
              <path class="cls-52" d="M97.09,63.86c-3.31,8.95-16.39,17.13-14.3,32.58.29-4.51.88-6.24.94-6.62,3.15-11.97,12.08-18.13,13.36-25.96Z"/>
            </g>
            <path class="cls-43" d="M65.64,100.6c1.08,1.81,2.8,3.19,4.07,4.86,1.4,1.84,2.82,3.65,3.93,5.68.38.69.99,1.23,1.74,1.47,1.12.35,2.15-.05,2.92-.57.89-.6,1.45-1.36,1.45-1.36.57-12.53,2.18-16.32.62-21.24,0,0-1.64-2.24-2.32-3.07-2.64-3.24-7.33-5.04-10.47-2.41-.76.63-1.42,1.53-1.95,2.72-1.75,3.96-2.26,10.08.02,13.91Z"/>
            <path class="cls-26" d="M75.83,93.61l-1.2,6.06s.52,2.21,1.81,3.84c1.3,1.64.78,3.03-1.26,2.5-2.04-.53-1.65-1.46-2.6-2.26-.95-.8-3.38-1.69-2.95-4.39.44-2.7,3.05-7.14,6.18-5.75Z"/>
            <path class="cls-40" d="M69.43,85.94s4.01.46,3.11,3.32c-.9,2.85-2.95,2.18-2.95,2.18,0,0,1.88,1.84,5.68-.04.88-.43,1.1-4.81-2.68-6.21-2.37-.88-3.15.75-3.15.75Z"/>
            <g>
              <path class="cls-13" d="M104.88,89.09s-6.1-.91-9.17-.93l-.69,3.84s1.1,1,1.12,2.83c.02,1.82-.19,6.6,1.56,10.37s8.2,5.12,10.61,5.47c0,0-7.25-1.7-9.31-6.11-2.06-4.41-.6-12.54-.6-12.54l3.49-2.53,2.8.75.19-1.15Z"/>
              <path class="cls-13" d="M109.98,91.88l.13-.7,16.22,3.87-.98,5.48s-4.61,7.69-7.18,9.21c-2.57,1.52-9.73.29-9.73.29l.08-.45s6.39,1.39,9.37-1.23c2.99-2.62,5.51-7.3,6-9.48.79-3.5-4.39-4.77-13.9-6.99Z"/>
              <path class="cls-13" d="M151.96,99.57s3.58.71,4.4,2.69c.82,1.98.52,2.68.29,3.53-.23.84-1.36,5.1-3.92,7.8-2.56,2.7-6.33,2.04-9.03,1.81,0,0,3.59,1.61,7.76.59,4.16-1.02,7.77-10.88,7.87-12.72.1-1.84-4.77-4.07-6.4-4.38l-.82-.14-.16.83Z"/>
              <path class="cls-13" d="M128.67,99.96s1.97.2,2.28,3.54c.31,3.34,1.87,6.81,3.55,9.23s7.94,3.48,8.91,3.65l.1-.57s-6.17-1.05-7.85-3.33c-1.68-2.28-3.63-7.52-3.82-12.01-.04-1.01-1.46-1.56-2.99-1.86l-.18,1.36Z"/>
              <g>
                <path class="cls-58" d="M125.7,98.16c.11-.93-.42-1.85-1.33-2.32-2.18-1.14-6.82-3.23-13.3-4.35-9.2-1.59-13.15-1.47-13.05,4.73.1,6.2,1.09,12.2,7.74,13.35,6.65,1.15,11.18,2.35,15.84-2.93,3.04-3.45,3.89-6.66,4.11-8.48Z"/>
                <path class="cls-58" d="M159.47,101.03c-2.7-2.3-20.46-4.68-25.19-3.5-2.84.71-1.37,6.85-.53,9.89.83,3.04.98,6.34,9.16,8.31,8.19,1.97,11.9-1.99,12.93-3.32s5.15-10.09,3.64-11.38Z"/>
              </g>
              <path class="cls-15" d="M125.8,94.27c3.15.95,5.11,1.36,8.76,1.59.83.05,1.74.09,2.69.1,5.78.04,17.57,1.79,24.58,4.23l-.65,3.61c-.7.37-1.42,1.11-1.74,1.95-.72,1.82-2.41,7.18-5.37,9.58-2.99,2.42-10.21,1.5-14.01.17-1.77-.62-3.71-1.35-4.69-2.83-4.8-7.31-2.01-11.93-6.16-12.66-3.53-.63-3.18,3.82-8.4,8.54-2.33,2.11-3.22,2.58-7.38,2.61-4.4.03-12.06-1.54-14.25-4.93-2.19-3.4-1.97-9.14-2.04-11.47-.03-.97-.51-1.97-1.11-2.6l.69-3.85c.94.03,1.9.09,2.88.18,13.89,1.17,26.06,5.74,26.2,5.79ZM133.63,101.92c0,2.29,1.23,8.48,3,10.38,2.01,2.2,5.96,3.06,9.09,3.35,2.23.21,4.42.39,6.17-.45,4.01-1.94,6.26-9.42,6.08-10.87-.32-2.68-1.79-3.77-4.29-4.38-.12-.03-2.83-.63-3.11-.68-4.52-.94-10.05-1.29-13.94-1.05-2.39.13-3.02,1.53-3.02,3.71h0ZM98.84,95.89c-.28,2.8-.05,6.57,1.33,9.15.3.57.67,1.1,1.11,1.57,1.47,1.53,3.47,2.05,5.62,2.59,3.35.84,7.61,1.49,10.7.16,1.67-.71,3.31-2.87,4.28-4.28.87-1.26,2.15-3.36,2.67-4.76,1.33-3.56-.61-4.23-3.16-5.21-2.04-.78-4.35-1.54-6.68-2.17-2.33-.62-4.75-1.13-7.14-1.45-2.24-.29-4.64-.94-6.58.34-.85.56-1.82,1.73-2.02,2.83-.08.41-.1.83-.13,1.22h0Z"/>
              <polygon class="cls-15" points="97.8 90.09 96.81 88.34 96.3 88.16 77.27 85.63 79.49 88.14 96.03 92.16 97.8 90.09"/>
              <path class="cls-13" d="M79.21,87.85l.27.29,15.63,3.93.88.16s-.04-.3-.66-.58-16.11-3.8-16.11-3.8Z"/>
            </g>
          </g>
        </g>
      </g>
      <circle class="cls-59" cx="114.22" cy="117.77" r="108.47"/>
    </g>
  </g>
</svg>