<?xml version="1.0" encoding="UTF-8"?>
<svg xmlns="http://www.w3.org/2000/svg" xmlns:xlink="http://www.w3.org/1999/xlink" viewBox="0 0 227.32 379.46">
  <defs>
    <style>
      .cls-1 {
        fill: url(#_Áåçûìÿííûé_ãðàäèåíò_9);
      }

      .cls-1, .cls-2, .cls-3, .cls-4, .cls-5, .cls-6, .cls-7, .cls-8, .cls-9, .cls-10, .cls-11, .cls-12, .cls-13, .cls-14, .cls-15, .cls-16, .cls-17, .cls-18, .cls-19, .cls-20, .cls-21, .cls-22, .cls-23, .cls-24, .cls-25, .cls-26, .cls-27, .cls-28, .cls-29, .cls-30, .cls-31, .cls-32, .cls-33, .cls-34, .cls-35, .cls-36, .cls-37, .cls-38, .cls-39, .cls-40, .cls-41, .cls-42, .cls-43, .cls-44, .cls-45, .cls-46, .cls-47, .cls-48, .cls-49, .cls-50, .cls-51, .cls-52, .cls-53, .cls-54, .cls-55, .cls-56, .cls-57, .cls-58, .cls-59, .cls-60, .cls-61, .cls-62 {
        stroke-width: 0px;
      }

      .cls-1, .cls-7, .cls-10, .cls-25, .cls-63, .cls-40, .cls-44, .cls-64, .cls-51, .cls-56, .cls-59, .cls-60 {
        mix-blend-mode: multiply;
      }

      .cls-1, .cls-7, .cls-10, .cls-40, .cls-64, .cls-51, .cls-56 {
        opacity: .6;
      }

      .cls-2 {
        fill: #fcc466;
      }

      .cls-3 {
        fill: #002d74;
      }

      .cls-4 {
        fill: url(#linear-gradient);
      }

      .cls-5 {
        fill: #250a05;
      }

      .cls-6 {
        fill: url(#_Áåçûìÿííûé_ãðàäèåíò_338-4);
      }

      .cls-7 {
        fill: url(#_Áåçûìÿííûé_ãðàäèåíò_9-6);
      }

      .cls-8 {
        fill: #bf5b48;
      }

      .cls-9 {
        fill: #c35d4a;
      }

      .cls-10 {
        fill: url(#_Áåçûìÿííûé_ãðàäèåíò_9-3);
      }

      .cls-11 {
        fill: #680015;
      }

      .cls-12 {
        fill: url(#_Áåçûìÿííûé_ãðàäèåíò_36-3);
      }

      .cls-13 {
        fill: url(#_Áåçûìÿííûé_ãðàäèåíò_37);
      }

      .cls-65 {
        clip-path: url(#clippath-2);
      }

      .cls-66 {
        isolation: isolate;
      }

      .cls-14 {
        fill: url(#_Áåçûìÿííûé_ãðàäèåíò_66);
      }

      .cls-15 {
        fill: url(#_Áåçûìÿííûé_ãðàäèåíò_2-3);
      }

      .cls-17 {
        fill: url(#_Áåçûìÿííûé_ãðàäèåíò_36-4);
      }

      .cls-18 {
        fill: url(#_Áåçûìÿííûé_ãðàäèåíò_9-4);
      }

      .cls-19 {
        fill: #3b608d;
      }

      .cls-20 {
        fill: url(#linear-gradient-5);
      }

      .cls-21 {
        fill: #2c0d0f;
      }

      .cls-22, .cls-67, .cls-33 {
        fill: none;
      }

      .cls-23 {
        fill: url(#_Áåçûìÿííûé_ãðàäèåíò_36-5);
      }

      .cls-24 {
        fill: url(#_Áåçûìÿííûé_ãðàäèåíò_2);
      }

      .cls-25 {
        fill: #a374a6;
      }

      .cls-25, .cls-33 {
        opacity: .5;
      }

      .cls-68 {
        clip-path: url(#clippath-1);
      }

      .cls-67 {
        stroke: #f08220;
        stroke-width: 6px;
      }

      .cls-67, .cls-33 {
        stroke-miterlimit: 10;
      }

      .cls-26 {
        fill: #f18a00;
      }

      .cls-27 {
        fill: #ac5240;
      }

      .cls-28 {
        fill: #431723;
      }

      .cls-29 {
        fill: url(#_Áåçûìÿííûé_ãðàäèåíò_37-2);
      }

      .cls-30 {
        fill: url(#_Áåçûìÿííûé_ãðàäèåíò_36-2);
      }

      .cls-31 {
        fill: #fff;
      }

      .cls-32 {
        fill: url(#_Áåçûìÿííûé_ãðàäèåíò_36-7);
      }

      .cls-33 {
        mix-blend-mode: soft-light;
        stroke: #fff;
      }

      .cls-34 {
        fill: url(#_Áåçûìÿííûé_ãðàäèåíò_338);
      }

      .cls-35 {
        fill: url(#linear-gradient-2);
      }

      .cls-63 {
        opacity: .3;
      }

      .cls-36 {
        fill: url(#_Áåçûìÿííûé_ãðàäèåíò_36-8);
      }

      .cls-37 {
        fill: url(#_Áåçûìÿííûé_ãðàäèåíò_9-5);
      }

      .cls-38 {
        fill: #d5dce0;
      }

      .cls-39 {
        fill: url(#linear-gradient-3);
      }

      .cls-40 {
        fill: #e6a1ea;
      }

      .cls-41 {
        fill: url(#_Áåçûìÿííûé_ãðàäèåíò_36-6);
      }

      .cls-42 {
        fill: #edeeef;
      }

      .cls-69 {
        clip-path: url(#clippath);
      }

      .cls-43 {
        fill: #5a3311;
      }

      .cls-44 {
        fill: #3e517a;
        opacity: .2;
      }

      .cls-45 {
        fill: url(#_Áåçûìÿííûé_ãðàäèåíò_338-3);
      }

      .cls-46 {
        fill: #c3cdd1;
      }

      .cls-47 {
        fill: url(#_Áåçûìÿííûé_ãðàäèåíò_2-4);
      }

      .cls-48 {
        fill: url(#_Áåçûìÿííûé_ãðàäèåíò_338-2);
      }

      .cls-49 {
        fill: #ffbe7f;
      }

      .cls-50 {
        fill: #b85845;
      }

      .cls-51 {
        fill: #d39fe6;
      }

      .cls-52 {
        fill: url(#_Áåçûìÿííûé_ãðàäèåíò_36);
      }

      .cls-53 {
        fill: url(#_Áåçûìÿííûé_ãðàäèåíò_66-2);
      }

      .cls-54 {
        fill: #a54f3e;
      }

      .cls-55 {
        fill: #e2e5e8;
      }

      .cls-56 {
        fill: url(#_Áåçûìÿííûé_ãðàäèåíò_9-2);
      }

      .cls-57 {
        fill: #dc005b;
      }

      .cls-58 {
        fill: url(#linear-gradient-4);
      }

      .cls-59 {
        fill: url(#_Áåçûìÿííûé_ãðàäèåíò_17);
      }

      .cls-59, .cls-60 {
        opacity: .7;
      }

      .cls-60 {
        fill: url(#_Áåçûìÿííûé_ãðàäèåíò_17-2);
      }

      .cls-61 {
        fill: url(#_Áåçûìÿííûé_ãðàäèåíò_2-2);
      }

      .cls-62 {
        fill: #e5f8f8;
      }
    </style>
    <clipPath id="clippath">
      <circle class="cls-22" cx="112.69" cy="117.77" r="108.47"/>
    </clipPath>
    <linearGradient id="_Áåçûìÿííûé_ãðàäèåíò_9" data-name="Áåçûìÿííûé ãðàäèåíò 9" x1="-5717.83" y1="-87.62" x2="-5832.17" y2="421.21" gradientTransform="translate(5576.34 -95.73) rotate(-3.05) scale(.96 1) skewX(-.25)" gradientUnits="userSpaceOnUse">
      <stop offset="0" stop-color="#ffeada"/>
      <stop offset=".99" stop-color="#c660f7"/>
    </linearGradient>
    <linearGradient id="_Áåçûìÿííûé_ãðàäèåíò_9-2" data-name="Áåçûìÿííûé ãðàäèåíò 9" x1="-5646.88" y1="-95.81" x2="-5777.59" y2="485.86" gradientTransform="translate(4869.1 -2337.35) rotate(-28.16) scale(.96 1) skewX(-.25)" xlink:href="#_Áåçûìÿííûé_ãðàäèåíò_9"/>
    <linearGradient id="_Áåçûìÿííûé_ãðàäèåíò_17" data-name="Áåçûìÿííûé ãðàäèåíò 17" x1="-775.95" y1="193.12" x2="-737.81" y2="193.12" gradientTransform="translate(847.85 0) scale(.96 1)" gradientUnits="userSpaceOnUse">
      <stop offset="0" stop-color="#fde8d9"/>
      <stop offset=".99" stop-color="#ae60f2"/>
    </linearGradient>
    <linearGradient id="_Áåçûìÿííûé_ãðàäèåíò_17-2" data-name="Áåçûìÿííûé ãðàäèåíò 17" x1="-807.92" y1="193.4" x2="-780.11" y2="193.4" xlink:href="#_Áåçûìÿííûé_ãðàäèåíò_17"/>
    <linearGradient id="_Áåçûìÿííûé_ãðàäèåíò_9-3" data-name="Áåçûìÿííûé ãðàäèåíò 9" x1="70.05" y1="127.67" x2="129.95" y2="50.65" gradientTransform="translate(-8.86 36.03) rotate(-8)" xlink:href="#_Áåçûìÿííûé_ãðàäèåíò_9"/>
    <linearGradient id="_Áåçûìÿííûé_ãðàäèåíò_338" data-name="Áåçûìÿííûé ãðàäèåíò 338" x1="1572.6" y1="-621.59" x2="1596.71" y2="-621.59" gradientTransform="translate(1717.02 76.34) rotate(156.7) scale(.96 -1) skewX(1.19)" gradientUnits="userSpaceOnUse">
      <stop offset=".01" stop-color="#661c22"/>
      <stop offset="1" stop-color="#451123"/>
    </linearGradient>
    <linearGradient id="_Áåçûìÿííûé_ãðàäèåíò_338-2" data-name="Áåçûìÿííûé ãðàäèåíò 338" x1="-1132.89" y1="692.51" x2="-1108.78" y2="692.51" gradientTransform="translate(1236.4 -499.2) rotate(4.78) scale(.96 1) skewX(1.01)" xlink:href="#_Áåçûìÿííûé_ãðàäèåíò_338"/>
    <linearGradient id="_Áåçûìÿííûé_ãðàäèåíò_66" data-name="Áåçûìÿííûé ãðàäèåíò 66" x1="-3597.88" y1="-29.05" x2="-3597.88" y2="-42.16" gradientTransform="translate(3393.25 -883.35) rotate(-17.39) scale(.96 1) skewX(-.75)" gradientUnits="userSpaceOnUse">
      <stop offset="0" stop-color="#e3dbfb"/>
      <stop offset="1" stop-color="#fff"/>
    </linearGradient>
    <clipPath id="clippath-1">
      <path id="SVGID" class="cls-22" d="M92.08,117.96c.07.13,0,.29-.13.34-.43.16-1.46.77-1.63.95-.22.24-2.36,1.36-4.46,1.74-3.06.55-4.75-.07-7.39-2.06-2.64-2-3.2-4.29-3.35-4.96s2.26-3.26,5.5-3.61c3.24-.34,7.71,2.56,9.24,4.8,1.09,1.6,2.01,2.38,2.22,2.79Z"/>
    </clipPath>
    <linearGradient id="_Áåçûìÿííûé_ãðàäèåíò_338-3" data-name="Áåçûìÿííûé ãðàäèåíò 338" x1="-3614.74" y1="-36.37" x2="-3590.21" y2="-36.37" gradientTransform="translate(3393.25 -883.35) rotate(-17.39) scale(.96 1) skewX(-.75)" xlink:href="#_Áåçûìÿííûé_ãðàäèåíò_338"/>
    <linearGradient id="_Áåçûìÿííûé_ãðàäèåíò_66-2" data-name="Áåçûìÿííûé ãðàäèåíò 66" x1="-1980.25" y1="233.68" x2="-1980.25" y2="220.57" gradientTransform="translate(-1832.79 -172.56) rotate(-178.36) scale(.99 -1) skewX(.07)" xlink:href="#_Áåçûìÿííûé_ãðàäèåíò_66"/>
    <clipPath id="clippath-2">
      <path id="SVGID-2" data-name="SVGID" class="cls-22" d="M109.75,115.06c-.04.14.06.28.2.3.47.06,1.4.2,1.61.33.28.19,2.08.75,4.28.74,2.2-.01,5.04-.87,7.25-3.41,2.22-2.54,2.39-5.05,2.39-5.73s-3-2.67-6.33-2.28c-3.33.39-7.19,4.22-8.23,6.76-.74,1.8-1.05,2.84-1.17,3.29Z"/>
    </clipPath>
    <linearGradient id="_Áåçûìÿííûé_ãðàäèåíò_338-4" data-name="Áåçûìÿííûé ãðàäèåíò 338" x1="-1997.11" y1="226.27" x2="-1972.59" y2="226.27" gradientTransform="translate(-1832.79 -172.56) rotate(-178.36) scale(.99 -1) skewX(.07)" xlink:href="#_Áåçûìÿííûé_ãðàäèåíò_338"/>
    <linearGradient id="_Áåçûìÿííûé_ãðàäèåíò_9-4" data-name="Áåçûìÿííûé ãðàäèåíò 9" x1="1735.36" y1="112.07" x2="1735.36" y2="117.44" gradientTransform="translate(1738.88 -209.6) rotate(172) scale(.96 -1)" xlink:href="#_Áåçûìÿííûé_ãðàäèåíò_9"/>
    <linearGradient id="_Áåçûìÿííûé_ãðàäèåíò_9-5" data-name="Áåçûìÿííûé ãðàäèåíò 9" x1="1742.43" y1="112.07" x2="1742.43" y2="117.44" gradientTransform="translate(1738.88 -209.6) rotate(172) scale(.96 -1)" xlink:href="#_Áåçûìÿííûé_ãðàäèåíò_9"/>
    <linearGradient id="_Áåçûìÿííûé_ãðàäèåíò_9-6" data-name="Áåçûìÿííûé ãðàäèåíò 9" x1="1738.88" y1="114.79" x2="1738.88" y2="92.02" gradientTransform="translate(1738.88 -209.6) rotate(172) scale(.96 -1)" xlink:href="#_Áåçûìÿííûé_ãðàäèåíò_9"/>
    <linearGradient id="linear-gradient" x1="1723.14" y1="124.25" x2="1751.74" y2="124.25" gradientTransform="translate(1738.88 -209.6) rotate(172) scale(.96 -1)" gradientUnits="userSpaceOnUse">
      <stop offset="0" stop-color="#cb1e62"/>
      <stop offset=".99" stop-color="#bf0561"/>
    </linearGradient>
    <linearGradient id="linear-gradient-2" x1="1723.14" y1="128.82" x2="1751.74" y2="128.82" gradientTransform="translate(1738.88 -209.6) rotate(172) scale(.96 -1)" gradientUnits="userSpaceOnUse">
      <stop offset="0" stop-color="#fb3987"/>
      <stop offset=".99" stop-color="#a9095f"/>
    </linearGradient>
    <linearGradient id="linear-gradient-3" x1="1732.67" y1="57.73" x2="1734.64" y2="-11.75" gradientTransform="translate(1738.88 -209.6) rotate(172) scale(.96 -1)" gradientUnits="userSpaceOnUse">
      <stop offset="0" stop-color="#1e100c"/>
      <stop offset=".49" stop-color="#2d1712"/>
      <stop offset="1" stop-color="#42231c"/>
    </linearGradient>
    <linearGradient id="linear-gradient-4" x1="1731.6" y1="98.55" x2="1731.6" y2="12.56" xlink:href="#linear-gradient-3"/>
    <linearGradient id="_Áåçûìÿííûé_ãðàäèåíò_37" data-name="Áåçûìÿííûé ãðàäèåíò 37" x1="1688.33" y1="28.41" x2="1690.61" y2="75.71" gradientTransform="translate(1738.88 -209.6) rotate(172) scale(.96 -1)" gradientUnits="userSpaceOnUse">
      <stop offset="0" stop-color="#42231c"/>
      <stop offset=".51" stop-color="#2d1712"/>
      <stop offset="1" stop-color="#1e100c"/>
    </linearGradient>
    <linearGradient id="_Áåçûìÿííûé_ãðàäèåíò_37-2" data-name="Áåçûìÿííûé ãðàäèåíò 37" x1="1770.76" y1="25.35" x2="1773.01" y2="72.02" xlink:href="#_Áåçûìÿííûé_ãðàäèåíò_37"/>
    <linearGradient id="_Áåçûìÿííûé_ãðàäèåíò_36" data-name="Áåçûìÿííûé ãðàäèåíò 36" x1="1746.49" y1="109.24" x2="1746.22" y2="32.36" gradientTransform="translate(1738.88 -209.6) rotate(172) scale(.96 -1)" gradientUnits="userSpaceOnUse">
      <stop offset="0" stop-color="#1e100c"/>
      <stop offset=".49" stop-color="#2d1712"/>
      <stop offset="1" stop-color="#42231c"/>
    </linearGradient>
    <linearGradient id="_Áåçûìÿííûé_ãðàäèåíò_36-2" data-name="Áåçûìÿííûé ãðàäèåíò 36" x1="1762.23" y1="109.19" x2="1761.96" y2="32.3" xlink:href="#_Áåçûìÿííûé_ãðàäèåíò_36"/>
    <linearGradient id="_Áåçûìÿííûé_ãðàäèåíò_36-3" data-name="Áåçûìÿííûé ãðàäèåíò 36" x1="1725.41" y1="109.31" x2="1725.14" y2="32.43" xlink:href="#_Áåçûìÿííûé_ãðàäèåíò_36"/>
    <linearGradient id="_Áåçûìÿííûé_ãðàäèåíò_36-4" data-name="Áåçûìÿííûé ãðàäèåíò 36" x1="1708.17" y1="109.37" x2="1707.9" y2="32.48" xlink:href="#_Áåçûìÿííûé_ãðàäèåíò_36"/>
    <linearGradient id="_Áåçûìÿííûé_ãðàäèåíò_36-5" data-name="Áåçûìÿííûé ãðàäèåíò 36" x1="1695.55" y1="109.41" x2="1695.29" y2="32.52" xlink:href="#_Áåçûìÿííûé_ãðàäèåíò_36"/>
    <linearGradient id="_Áåçûìÿííûé_ãðàäèåíò_36-6" data-name="Áåçûìÿííûé ãðàäèåíò 36" x1="1774.84" y1="109.2" x2="1775.5" y2="55.89" xlink:href="#_Áåçûìÿííûé_ãðàäèåíò_36"/>
    <linearGradient id="_Áåçûìÿííûé_ãðàäèåíò_36-7" data-name="Áåçûìÿííûé ãðàäèåíò 36" x1="1688.99" y1="108.16" x2="1689.66" y2="54.88" xlink:href="#_Áåçûìÿííûé_ãðàäèåíò_36"/>
    <linearGradient id="_Áåçûìÿííûé_ãðàäèåíò_36-8" data-name="Áåçûìÿííûé ãðàäèåíò 36" x1="1731.67" y1="75.38" x2="1731.8" y2="49.67" xlink:href="#_Áåçûìÿííûé_ãðàäèåíò_36"/>
    <linearGradient id="linear-gradient-5" x1="1733.15" y1="82.35" x2="1738.23" y2="139.26" xlink:href="#linear-gradient-3"/>
    <linearGradient id="_Áåçûìÿííûé_ãðàäèåíò_2" data-name="Áåçûìÿííûé ãðàäèåíò 2" x1="-16.61" y1="382.27" x2="177.39" y2="382.27" gradientTransform="translate(16.77 494.12) rotate(10.1) scale(.96 -.42) skewX(-4.52)" gradientUnits="userSpaceOnUse">
      <stop offset="0" stop-color="#cab7dd"/>
      <stop offset="1" stop-color="#abb8e1"/>
    </linearGradient>
    <linearGradient id="_Áåçûìÿííûé_ãðàäèåíò_2-2" data-name="Áåçûìÿííûé ãðàäèåíò 2" x1="-17.09" y1="384.32" x2="176.35" y2="384.32" xlink:href="#_Áåçûìÿííûé_ãðàäèåíò_2"/>
    <linearGradient id="_Áåçûìÿííûé_ãðàäèåíò_2-3" data-name="Áåçûìÿííûé ãðàäèåíò 2" x1="-24.18" y1="367.1" x2="168.38" y2="367.1" gradientTransform="translate(-54.9 4.44) rotate(.37) scale(1 .93) skewX(5.92)" xlink:href="#_Áåçûìÿííûé_ãðàäèåíò_2"/>
    <linearGradient id="_Áåçûìÿííûé_ãðàäèåíò_2-4" data-name="Áåçûìÿííûé ãðàäèåíò 2" x1="-24.67" y1="367.54" x2="165.51" y2="367.54" gradientTransform="translate(-54.9 4.44) rotate(.37) scale(1 .93) skewX(5.92)" xlink:href="#_Áåçûìÿííûé_ãðàäèåíò_2"/>
  </defs>
  <g class="cls-66">
    <g id="Camada_1" data-name="Camada 1">
      <circle class="cls-2" cx="112.69" cy="117.77" r="108.47"/>
      <g class="cls-69">
        <g>
          <g>
            <g>
              <g>
                <path class="cls-9" d="M80.73,227.65c-1.05,10.96-6.27,9.78-10.26,39.02-2.37,17.37-6.56,44.77-6.86,49.02h0c-.3,5.58-3.32,10.48-7.79,13.3-2.31,1.46-5,2.36-7.91,2.51-9.14.47-16.92-6.64-17.39-15.89-.1-1.92.13-3.79.64-5.54,1.26-4.76,2.36-9.95,3.22-16.91,2.68-21.77,3.79-48.38,2.64-52.35-2.99-10.38,4.96-44.3,21.83-42.1,2.23.29,4.24.71,6.05,1.24,18.02,5.24,16.47,21.09,15.83,27.71Z"/>
                <path class="cls-1" d="M80.73,227.65c-1.05,10.96-6.27,9.78-10.26,39.02-2.37,17.37-6.56,44.77-6.86,49.02h0c-.3,5.58-3.32,10.48-7.79,13.3.46-5.12.61-9.81.45-14.51-.02-.7-.05-1.4-.08-2.09-.68-13.39,6.77-53.37,8.94-66.21,2.01-11.88,7.52-35.02-.24-46.25,18.02,5.24,16.47,21.09,15.83,27.71Z"/>
              </g>
              <g>
                <path class="cls-9" d="M131.51,396.52c-.21.41-.41.69-.41.69,0,0,1.41.24,1.75,1.43.47,1.68-3.06,7.17-3.06,7.17,1.98,1.3,3.37,2.72,2.29,3.47-1.08.74-6.81,2.13-8.63,1.78-3.1-.59-9.08-1.2-9.45-1.68-3.14-4.05-11.26-11.96-11.43-12.95-.36-2.05-1.42-6.59-2.1-11.57-.34-2.49-1.15-6.26-2.12-9.96-.97-3.7-2.1-7.33-3.09-9.54-.06-.18-.1-.36-.15-.54-.77-3.34.72-6.9,3.85-8.56,1.46-.78,3.05-1.03,4.58-.83,3.43.45,4.91,2.86,6.15,6,.21.54.42,1.11.63,1.69.11.29.22.59.28.92.08.39.16.76.26,1.1.22.79.49,1.4.83,1.67,3.04,2.48,4.54,3.8,5.68,5.93,1.13,2.13,2.17,4.32,2.92,6.66.75,2.34-.27,5.86.65,7.12,2.26,3.08,4.76,7.23,4.76,7.23,1.32-.59,2.05-.32,2.44.03.28.25.38.53.38.53,0,0,2.6-1.82,3.32-.46.46.86.05,1.98-.31,2.69Z"/>
                <g>
                  <path class="cls-9" d="M80.07,252.04h0c.06.16.11.28.15.36,2.75,5.75,5.71,11.79,7.31,16.68.09.26.18.55.27.88.04.13.08.26.12.4,1.14,3.93,2.72,11,4.21,18.13.12.56.24,1.13.36,1.71.18.86.36,1.74.55,2.64.06.29.12.58.18.87.06.29.12.58.18.86.14.66.27,1.33.41,2,.15.73.29,1.45.43,2.16.05.26.11.52.16.79.05.26.1.51.15.77.06.27.11.54.16.81.05.23.09.46.14.69.22,1.11.44,2.23.66,3.36.04.2.08.4.12.59.02.11.04.23.07.34.04.22.08.43.13.65.04.2.08.4.12.61,0,.02,0,.04,0,.06.19.95.34,1.72.44,2.26,0,.05.02.11.03.16.04.25.09.5.15.75,5.4,27.53,8.55,36.5,13.12,50.85.38,1.19.77,2.43,1.17,3.71.25.79-.14,1.56-.42,2.24-.64,1.59-2.07,2.86-4.57,4.19-4.14,2.21-7.17-.59-10.76-6.75-2.7-4.62-5.71-11.13-9.76-18.85-8.05-15.35-19.94-36.56-23.6-43.02-3.66-6.46-9.91-19.51-11.42-29.33-.67-4.36-1.18-8.21-1.89-12.25-1.42-7.05,1.8-14.46,8.4-17.98,3.04-1.62,6.37-2.19,9.57-1.82,5.28.6,10.21,3.74,12.92,8.83.29.54.54,1.08.76,1.63Z"/>
                  <path class="cls-56" d="M80.07,252.04h0c.06.16.11.28.15.36,2.75,5.75,5.71,11.79,7.31,16.68.09.26.18.55.27.88.04.13.08.26.12.4.99,3.47,2.5,10.01,4.21,18.13.12.56.24,1.13.36,1.71.18.86.36,1.74.55,2.64.06.29.12.58.18.87.06.29.12.58.18.86.14.66.27,1.33.41,2,.15.73.29,1.45.43,2.16.05.26.11.52.16.79.05.26.1.51.15.77.06.27.11.54.16.81.05.23.09.46.14.69.22,1.11.44,2.23.66,3.36.04.2.08.4.12.59.02.11.04.23.07.34.04.22.08.43.13.65.04.2.08.4.12.61,0,.02,0,.04,0,.06.11.55.22,1.11.32,1.67.04.2.08.4.12.59,0,.05.02.11.03.16.04.25.09.5.15.75,5.4,27.53,8.55,36.5,13.12,50.85.21.54.42,1.11.63,1.69.11.29.22.59.28.92.08.39.16.76.26,1.1.22.79.49,1.4.83,1.67,3.04,2.48,4.54,3.8,5.68,5.93,1.13,2.13,2.17,4.32,2.92,6.66-2.11-4.88-5.4-8.48-7.33-9.74-.84-.55-1.66-1.28-2.52-2.28-1.87-2.17-2.71-3.91-5.88-9.87-.34-.63-.67-1.33-1.02-2.08-5.16-11.38-10.9-36.06-15.98-56.9-4.78-19.62-8.36-31.48-13.47-42.14-.37-.78-4.72-10.77-7.68-14.8,5.28.6,10.21,3.74,12.92,8.83.29.54.54,1.08.76,1.63Z"/>
                </g>
              </g>
            </g>
            <g>
              <path class="cls-42" d="M73.85,263.63l.11,2.69c-3.62.54-8.39.65-13.39.46-10.84-.42-22.75-2.26-26.18-4.25-5.08-2.95-6.4-5.28-6.4-5.28.15-.52.31-1.05.45-1.57,9.04-31.55,13.4-58.11,17.96-61.66.2-.03.39-.05.59-.07,16.31-1.92,31.88,13.23,32.7,32.47.41,9.45-5.85,37.21-5.85,37.21Z"/>
              <path class="cls-44" d="M73.85,263.63s.08-.03.11-.03v5.18s-5.51,1.13-12.99,1.31c-.12-1.14-.25-2.24-.4-3.3-.06-.47-.13-.93-.2-1.39-2.13-14.45-6.06-21.33-6.06-21.33,0,0-3.16-11.06-2.46-18.33.32-3.33-.45-7.1-1.37-10.19-1.66-5.55-2.63-11.28-2.91-17.07-.39-1.54-.58-3.04-.59-4.53,16.31-1.92,31.88,13.23,32.7,32.47.41,9.45-5.85,37.21-5.85,37.21Z"/>
              <path class="cls-46" d="M73.97,263.59v5.18s-5.51,1.13-12.99,1.31c-10.79.26-25.72-1.47-34.4-11.43l1.55-3.29c.11.11.22.21.32.32,8.75,8.61,21.97,10.1,31.93,9.72,7.01-.26,12.4-1.46,13.47-1.77.04-.01.08-.03.11-.03Z"/>
            </g>
            <g>
              <g>
                <g>
                  <path class="cls-9" d="M68.19,226.21h64.89s23.9,13.88,23.9,13.88c0,0,10.82-37.14,11.07-52.04.05-3.2-.38-5.37-1.51-5.94-5.03-2.5-14.28-6.81-21.55-11.65-4.36-2.89-8.01-5.98-9.61-8.98-5.97-9.08-3.79-41.91-3.81-42.02l-5.38,11.39-30.93,15.52v21.23s-3.99,4.5-9.84,7.59c-4.27,2.24-8.92,4.61-14.75,6.88-2.17.85-2.46,44.12-2.46,44.12Z"/>
                  <path class="cls-55" d="M38.35,420.94s20.72-83.15,55.4-83.15c19.25,0,38.74,79.88,57.6,75.58,3-.7,6.13,10.94,9.25,9.69.95-.38,1.89-.79,2.83-1.2.48-.21.95-.42,1.41-.64,2.34-1.07,4.63-2.22,6.82-3.38,4.84-2.57,9.18-5.19,12.33-7.09.24-.15.47-.28.69-.42,1.17-.71,2.14-1.3,2.89-1.73.11-.06.23-.12.34-.19.26-.15.49-.27.68-.37,0,0-1.08-2.29-2.82-6.03-.14-.31-.29-.63-.44-.96-.23-.48-.46-.97-.69-1.48-.21-.45-.42-.9-.64-1.39-2.1-4.51-4.72-10.17-7.45-16.18-.55-1.2-1.09-2.41-1.65-3.63-.19-.43-.38-.85-.58-1.28-.38-.85-.77-1.71-1.16-2.56-.32-.71-.64-1.43-.96-2.14-.45-.99-.89-1.99-1.32-2.98-.99-2.19-1.94-4.36-2.85-6.44-1.74-3.97-3.32-7.68-4.61-10.84-.38-.94-.74-1.84-1.08-2.67-.11-.3-.23-.58-.33-.85-.05-.13-.1-.27-.15-.4-.1-.26-.21-.52-.3-.77-.05-.12-.09-.24-.14-.37-.07-.19-.14-.39-.2-.59-3.75-10.76-2.85-29.45-.8-42.51.98-6.22,2.22-11.17,3.34-13.36l3.39-6.68,1.31-2.58v-36.3s-123.95,0-123.95,0l-2,2.11c-2.86,3.01-4.06,7.24-3.22,11.33.76,3.64,2.08,8.03,4.41,11.34,2.76,3.97,5.9,5.7,8.25,14.57,1.73,6.51,3.02,16.88,3.42,34.83.01.42.02.84.03,1.25,0,.23,0,.46,0,.67,0,.17,0,.33,0,.49.03,2.03.05,4,.03,5.91,0,1.34,0,2.11,0,2.11-.37,35.23-6.82,52.51-10.69,64.36l-.88,1.04-2.64,3.11,1.41,2.73s-4.51,13.36-4.29,20.01Z"/>
                  <g class="cls-63">
                    <path class="cls-59" d="M103.79,197.06c-.24,0-.48-.1-.64-.3-.3-.36-.25-.9.1-1.2,3.55-3.01,5.71-2.7,8.99-2.24,4.29.61,10.77,1.53,26.2-4.08.44-.16.92.07,1.07.51.16.44-.07.93-.51,1.09-15.82,5.75-22.55,4.79-27,4.16-3.13-.44-4.71-.67-7.68,1.86-.16.13-.35.2-.54.2Z"/>
                  </g>
                  <g class="cls-63">
                    <path class="cls-60" d="M85.86,196.5c-3.05,0-7.15-1.02-13.2-4.63-.4-.24-.53-.76-.3-1.16.24-.4.75-.54,1.15-.3,9.81,5.86,13.89,4.53,17.16,3.46,2.37-.78,4.61-1.51,7.95,1.09.37.29.44.82.15,1.19-.28.37-.81.44-1.18.16-2.64-2.05-4.14-1.56-6.41-.82-1.44.47-3.1,1.02-5.33,1.02Z"/>
                  </g>
                </g>
                <path class="cls-51" d="M144.98,170.48c3.31,3.94,7.75,8.05,13.39,11.9,2.91,1.98,6.13,3.89,9.67,5.68.05-3.2-.38-5.37-1.51-5.94-5.03-2.5-14.28-6.81-21.55-11.65Z"/>
              </g>
              <path class="cls-55" d="M38.54,255.73c.44,11.12,9.71,22.23,13.41,28.68.25.45.48.88.68,1.28,2.08,4.23,2.64,23.2,2.77,34.81,0,.23,0,.46,0,.67,0,.17,0,.33,0,.49.02,2.45.03,4.5.03,5.91,0,1.34,0,2.11,0,2.11h99.84s1.62-13.92,5.15-25.7c1.05-3.52,29.12-62.58,30.55-109.14l-34.53-19.98s-17.38,35.68-56.84,35.68c-28.35,0-20.8-32.11-20.8-32.11,0,0-17.38,6.54-32.41,15.57,0,0,14.33,14.62,7.16,30.32-4.15,9.11-15.5,19.5-15.03,31.4Z"/>
              <path class="cls-44" d="M75.05,279.71c11.55-1.15,15.25,1.25,24.98,5.38,9.76,4.11,29.07,3.23,29.07,3.23,0,0,12.22,13.23,12.96,18.12.96,6.42,1.08,14.48,1.29,23.25.31,12.67.79,26.8,4.26,39.46,5.08,18.6,11.42,46.86,12.99,53.92.95-.38,1.89-.79,2.83-1.2.48-.21.95-.42,1.41-.64,2.34-1.07,4.63-2.22,6.82-3.38,4.84-2.57,9.18-5.19,12.33-7.09.24-.15.48-.3.69-.42,1.17-.71,2.14-1.3,2.89-1.73.11-.06.23-.12.34-.19.26-.15.49-.27.68-.37,0,0-1.08-2.29-2.82-6.03-.14-.31-.29-.63-.44-.96-.23-.48-.46-.97-.69-1.48-.21-.45-.42-.9-.64-1.39-2.1-4.51-4.72-10.17-7.45-16.18-.55-1.2-1.09-2.41-1.65-3.63-.19-.43-.38-.85-.58-1.28-.38-.85-.77-1.71-1.16-2.56-.32-.71-.64-1.43-.96-2.14-.45-.99-.89-1.99-1.32-2.98-.99-2.19-1.94-4.36-2.85-6.44-1.74-3.97-3.32-7.68-4.61-10.84-.4-.94-.76-1.84-1.08-2.67-.11-.3-.23-.58-.33-.85-.05-.13-.1-.27-.15-.4-.1-.26-.21-.52-.3-.77-.05-.12-.09-.24-.14-.37-.07-.19-.14-.39-.2-.59-3.75-10.76-2.85-29.45-.8-42.51,1.05-3.52,29.12-62.58,30.55-109.14-6.78,3.32-27.86,29.69-29.34,32.55-.4.76-.8,1.54-1.21,2.34-2.66,5.51-5.35,10.89-7.68,15.33-2.26,4.3-4.2,7.73-5.48,9.49-5.14,7.11-14.98,17.73-21.76,21.2-6.79,3.47-21.25,1.47-34.12-.79-12.9-2.26-25.55,2.73-31.53,7.48-5.97,4.73,3.65-1.59,15.2-2.73Z"/>
              <path class="cls-51" d="M131.75,144.08c-.65,3.29.47,2.48-.32,5.28-1.19,4.25.18-2.64-.16-.24-1.69,11.86-22.73,20.19-29.07,21.46-9.97,1.98-7.38-11.04-7.02-18.76l.32-4.43.27-1.15,35.98-2.16Z"/>
            </g>
            <g>
              <path class="cls-9" d="M163.79,300.65c.6,4.95.99,11.99,1.26,18.66-.04.48-.06.96-.06,1.46,0,9.74,7.8,17.63,17.42,17.63,5.13,0,9.73-2.24,12.93-5.8,2.79-3.13,4.49-7.28,4.49-11.83,0-.69-.04-1.35-.12-2.02-.05-.49-.13-.96-.22-1.44,0-.04,0-.09-.02-.13-.05-.4-.1-.8-.15-1.2,0-.06-.02-.12-.02-.18-.03-.23-.06-.46-.09-.68-.02-.22-.05-.45-.08-.67-.17-1.41-.34-2.78-.49-4.07-.04-.33-.08-.66-.11-.98-.2-1.77-.37-3.39-.49-4.78-.02-.22-.03-.44-.05-.64-.02-.22-.04-.44-.05-.65-.01-.14-.02-.27-.02-.4-.02-.28-.03-.56-.05-.81,0-.21-.01-.4-.01-.59,0-.11,0-.22,0-.33v-35.32c0-5.35-2.2-20.94-1.96-26.45.23-5.77-1.07-19.42-6.08-29.34-2.57-5.11-6.12-9.23-10.94-10.81-1.27-.41-19.34,6.08-19.01,34.45,2.57,15.4,2.61,56.07,3.93,66.93Z"/>
              <path class="cls-50" d="M191.29,237.12s3.46,42.08.95,65.4c0,0,1.01,5.24,1.92,13.98.08.73.93,13.1,1.16,16.1,2.79-3.13,4.49-7.28,4.49-11.83,0-.69-.04-1.35-.12-2.02-.04-.11-.06-.17-.06-.17-.05-.43-.11-.85-.16-1.27,0-.04,0-.09-.02-.13-.05-.4-.1-.8-.15-1.2,0-.06-.02-.12-.02-.18-.03-.23-.06-.46-.09-.68-.02-.22-.05-.45-.08-.67-.17-1.41-.34-2.78-.49-4.07-.04-.33-.08-.66-.11-.98-.2-1.77-.37-3.39-.49-4.78-.02-.22-.03-.44-.05-.64-.02-.22-.04-.44-.05-.65-.01-.14-.02-.27-.02-.4-.02-.28-.03-.56-.05-.81,0-.21-.01-.4-.01-.59,0-.11,0-.22,0-.33v-35.32c0-5.35-2.2-20.94-1.96-26.45.23-5.77-1.07-19.42-6.08-29.34,2.59,6.96,3.18,15.74,1.5,27.05Z"/>
            </g>
            <g>
              <path class="cls-38" d="M198.43,245.6c.31,1.64,3.08,24.27,3.34,25.91-6.8,3.17-15.76,5.88-26.7,6.04-4.18.06-8.65-.25-13.4-1.06-.12-.95-3.72-22.93-3.82-23.85-.08-.73-.15-1.45-.21-2.15-2-21.57,1.88-31.19,1.88-31.19,2.66-6.18,9.19-21.85,31.45-24.44l3.03,2.51s.67,3.09,1.2,5.66c2.06,9.98,2.2,30.31,2.2,30.31l1.92,5.34c-.21,2.12-2.08,6.05-2.08,6.05.05.26,1.14.6,1.19.86Z"/>
              <path class="cls-44" d="M199.34,238.68c-.21,2.12-2.09,6.05-2.09,6.05-4.06,2.85-15.17,4.71-15.6,4.78,11.44-3.26,17.68-10.84,17.68-10.84Z"/>
              <path class="cls-46" d="M203.48,273.75c-.76.32-1.56.63-2.38.93-7.04,2.59-16.19,4.53-27.1,3.76-4.17-.29-13.72-1.52-14.49-1.74l-.06-5.53c22.41,6.3,38.94-.61,41.18-1.48.51-.2,1.01-.4,1.49-.61l1.36,4.66Z"/>
            </g>
            <path class="cls-55" d="M135.99,209.6c-2.74,3.5-33.47,7.73-48.55,7.86-15.07.13-13.44-13.87-14.55-19.03-1.11-5.15,5.02-19.62,5.02-19.62,0,0,6.13-2.71,11.09-6.54s6.26-6.61,6.26-6.61l-.03,1.96s-2.77,14.16-1.21,22.88c1.57,8.72,10.05,19.69,10.05,19.69,0,0,13.15-10.6,16.64-14.4,12.72-13.87,17.36-32.7,17.36-32.7,4.83,3.7,18.37,11.77,18.37,11.77,0,0,1.74,2.24,2.29,2.78.07.07.13.11.15.11l-22.9,31.84Z"/>
            <path class="cls-44" d="M95.16,165.4s-3.54,5.15-10.9,9.92c0,0-6.34,8.73-6.78,20.59,0,0,13.91-3.84,16.85-2.95,0,0-.57-4.89-.35-13.09.22-8.2,1.47-11.86,1.47-11.86l-.29-2.61Z"/>
            <path class="cls-38" d="M95.25,164.61s-3.17,4.9-10.53,9.67c0,0-7.22,7.08-7.66,18.94,0,0,14.84-.71,17.78.19,0,0-1.08-5.33-.86-13.53.22-8.2,1.47-11.86,1.47-11.86l-.2-3.41Z"/>
            <g>
              <path class="cls-3" d="M142.56,213.91c-.39-.12-.77-.23-1.18-.31-.02,0-.03,0-.05,0-.6.41-1.16.87-1.67,1.37.53-.05,1.08-.07,1.63-.07,1.93.03,3.75.46,5.37,1.17-1.15-.92-2.55-1.67-4.11-2.15"/>
              <path class="cls-26" d="M141.46,218.26c2.24-.95,4.55-1.28,6.7-1.07-1.81-.95-3.92-1.51-6.18-1.55-1.11-.02-2.2.09-3.23.32-.54.68-1,1.42-1.37,2.2.46.53.97,1.03,1.52,1.49.78-.54,1.63-1,2.54-1.39"/>
              <path class="cls-49" d="M138.76,215.97c-.86.19-1.68.45-2.46.78.71,1.06,1.59,2.04,2.62,2.9h0c-.55-.47-1.06-.96-1.52-1.49.36-.78.82-1.52,1.37-2.2"/>
              <path class="cls-49" d="M138.92,219.66c-.55-.46-1.06-.96-1.53-1.49-.52,1.12-.83,2.33-.9,3.59.71-.78,1.52-1.48,2.43-2.1"/>
              <path class="cls-3" d="M149.41,227.14s-.05,0-.08,0c-1.11-.06-1.87-.84-1.82-1.85v-.02c.05-.97.9-1.69,1.93-1.63.06,0,.11,0,.16.01l.06-1.16s-.1,0-.15,0c-2.01-.11-3.6,1.06-3.69,2.72v.02c-.09,1.62,1.38,2.97,3.35,3.08.06,0,.11,0,.17,0l.06-1.16Z"/>
              <path class="cls-3" d="M129.19,223.6c-1.17-.33-1.33-.46-1.31-.85v-.02c.02-.29.33-.5.91-.47.3.02.68.12.94.24l.07-1.24c-.25-.06-.63-.13-.93-.15-1.4-.08-2.44.58-2.5,1.66v.02c-.06,1.18.81,1.55,2.18,1.93,1.13.32,1.23.49,1.22.82v.02c-.02.35-.4.54-1.02.51-.79-.04-1.29-.35-1.89-.82l-.94.87c.79.68,1.7,1.04,2.74,1.1,1.48.08,2.56-.52,2.62-1.7v-.02c.06-1.03-.71-1.51-2.08-1.89"/>
              <path class="cls-3" d="M132.63,224.31c.15-.62.58-1.01,1.2-.97s1.01.47,1.06,1.09l-2.26-.12ZM133.89,222.24c-1.54-.08-2.68,1-2.75,2.39v.02c-.08,1.49,1.04,2.57,2.63,2.66.05,0,.19,0,.24,0l.06-1.11s-.18,0-.22,0c-.67-.04-1.13-.39-1.24-1.02l3.65.2c.02-.13.03-.21.04-.34v-.02c.07-1.38-.64-2.68-2.4-2.77"/>
              <path class="cls-3" d="M141.07,225.02c.07-1.31-.65-2.38-2.29-2.47s-2.47.9-2.54,2.21l-.14,2.57,1.52.08.14-2.67c.05-.48.27-1.05.95-1.01s.85.62.85,1.11l-.14,2.67,1.5.08.14-2.57Z"/>
              <path class="cls-3" d="M143.67,222.79c-.07,0-.3-.01-.36-.02l-.06,1.18c.29.02.69.09.86.2.25.16.38.41.37.73-.36-.06-.76-.11-1.11-.14-1.43-.12-2.17.34-2.35,1.12,0,.01,0,.03-.01.04,0,0,0,.01,0,.02-.02.07-.03.15-.03.24v.02c-.05.96.74,1.53,1.74,1.58.73.04,1.25-.18,1.63-.53l-.03.56,1.45.08.15-2.85c.07-1.31-.61-2.13-2.25-2.22M144.42,226.05c-.17.7-.88.77-1.04.77-1.15,0-1.14-.81-.75-1.04.53-.3,1.81-.05,1.81-.05,0,.05,0,.17-.02.31"/>
            </g>
            <g>
              <path class="cls-44" d="M138.08,163.09l12.85,8.39s-4.53,20.38-14.66,29.53l-16.91-3.68s14.55-17.69,18.72-34.24Z"/>
              <path class="cls-38" d="M138.08,163.09l12.5,7.48c.17.1.54.77.52.97-.33,2.59-5.02,19.42-14.37,27.86l-17.75-1.84s14.93-17.92,19.11-34.47Z"/>
            </g>
          </g>
          <g>
            <path class="cls-5" d="M141.65,34.96c-2.11-.54-4.64-.36-6.7.5-1.43-1.62-4-2.55-6.06-2.18-.81.15-1.45.44-1.95.83-.25-.05-.51-.09-.78-.12-1.89-3.76-5.62-6.43-10.89-5.61-2.41.37-4.42,1.67-5.51,3.53-.17-.01-.33-.02-.49-.02-.43-.32-.86-.63-1.32-.9-1.08-.64-2.47-.81-3.42-.04-1.05.84-1.39,1.88-1.26,2.92-3.66-.24-7.2,1.08-8.83,4.33-1.3,2.6-.55,5.46,1.63,7.43-1.13,1.21-1.83,2.75-1.69,4.28.07.85.83,1.6,1.6,2.02.32,2.38,1.88,4.64,4.07,6,.99.62,2,.97,3,1.12,0,.35,0,.71.04,1.08.37,3.75,3.36,7.85,7.66,8.17,1.34.1,2.63-.17,3.85-.67,1.53,1.35,3.39,2.48,5.29,3.12,3.36,3.3,7.9,2.5,11.53.72.15.88.73,1.68,1.85,1.98,1.23.33,2.57.27,3.86-.07.16.09.32.2.47.35,2.29,1.65,4.61-.37,4.27-2.4,1.56-.78,2.6-2.5,2.26-4.88.42-.42.78-.89,1.09-1.39,1.78-.08,3.49-.85,4.6-2.13,1.48-1.7,1.82-4.18,1.05-6.39.38-.5.69-1.04.87-1.63.64-.55.99-1.39.81-2.33-.31-1.6-1.22-3.17-2.5-4.22.44-2.45.08-5.04-1.44-7.33-.34-.51-.73-.97-1.14-1.38-1.02-2.17-3.52-4.07-5.82-4.66Z"/>
            <g>
              <ellipse class="cls-21" cx="145.47" cy="88.84" rx="6.23" ry="7.31" transform="translate(-10.95 21.11) rotate(-8)"/>
              <ellipse class="cls-21" cx="144.97" cy="101.02" rx="6.82" ry="8.36" transform="translate(-12.65 21.16) rotate(-8)"/>
              <ellipse class="cls-21" cx="62.06" cy="100.94" rx="5.7" ry="7.25" transform="translate(-13.44 9.62) rotate(-8)"/>
              <ellipse class="cls-21" cx="67.31" cy="110.71" rx="6.55" ry="7.46" transform="translate(-14.75 10.44) rotate(-8)"/>
              <ellipse class="cls-21" cx="59.19" cy="85.1" rx="4.42" ry="5.26" transform="translate(-11.27 9.07) rotate(-8)"/>
            </g>
            <path class="cls-21" d="M143.63,58.59c.41.07,3.94,4.15,4.23,6.24s-2.54,3.75,2.59,6.87c2.36,1.44,2.65,4.99.95,8.28-1.69,3.3-1,.63.52,6.66,1.52,6.04,1.69,4.3.07,10.01-.56,1.97-.56.16.21,5.64s3.61,5.24-3.2,10.45,1.07,9.56-2.88,15.96c-3.95,6.41-13.35,7.59-32.78,10.32-19.43,2.73-29.68,4.57-34.49.06-4.81-4.51-5.07-1.55-6.98-9.39-1.91-7.84-5.23-13.23-7.41-15.31-2.18-2.09-2-.78-2.41-5.64-.41-4.86-2.99-10.75-4.57-16.24-1.58-5.5,4.47-3.69,2.68-8.75-1.79-5.07-3.72-3.47-2.1-8.22s1.91-1.73,4.99-6.68c3.08-4.95,6.58-7.84,7.44-10.35s36.6-10.47,40.33-12.72c3.73-2.25,23.84,6.09,27.1,6.29,3.26.21,5.69,6.53,5.69,6.53Z"/>
            <path class="cls-8" d="M139.85,104.03l-1.3,20.62s1.25,1.46,2.32,1.3c2.85-.4,9.02-9.99,8.08-19.81-.94-9.82-6.14-8.16-9.11-2.12Z"/>
            <g>
              <path class="cls-54" d="M72.79,115.03l6.68,19.5s-.73,1.73-1.74,1.88c-2.68.38-10.8-7.2-12.57-16.91-1.78-9.7,3.35-9.49,7.64-4.47Z"/>
              <path class="cls-9" d="M68.15,115.68c2.2,7.14,7.68,30.76,11.7,35.94,1.02,1.31,3.09,3.12,5.64,5.04,6.44,4.87,13.94,10.81,17.06,11.27,3.19.47,5.06.29,8.3-1.17,3.99-1.82,21.39-15.36,23.55-20.8.64-1.61,3.99-6.98,4.62-10.6.31-1.77.6-3.7.88-5.7,1.3-9.25,1.14-19.92,1.22-24.25.02-1.22-.07-2.45-.19-3.66-.63-6.59-2.37-13.41-5.23-19.56-.08-.17-.16-.35-.24-.52-1.76-3.69-3.94-7.12-6.53-10.1-.05-.06-.11-.13-.17-.19-8.42-9.56-21.17-12.18-32.94-9.99-3.74.7-7.39,1.88-10.76,3.48-17.11,8.12-22.51,32.63-16.92,50.81Z"/>
              <path class="cls-10" d="M138.26,115.54c-1.14-2.04-2.57-5.73-4.78-6.21-2.21,2.63-6.88,10.46-17.9,10.1-6.81-.22-7.1-2.26-7.1-2.26-2.25-3.69-2.77-9.28-1.78-13.44,1.57-2.34,23.51-8.55,27.71-8.48-.22-.51-7.94-15.15-8.34-16.73-.54-2.13-14.12-11.7-21.54-11.13-2.72.21-22.74.74-28.22,11.65-.81,1.61-3.88,6.39-4.25,17.84-.14,4.37,5.87,5.85,9.11,6.86,3.45-1.12,5.47-1.31,10.91,1.17,3.72,3.09,2.81,8.88,2.61,13.72,0,0-2.7,4.11-4.56,4.37s-6.44,2.86-14.9-.21c0,.03.53,5.48,1.56,12.77.85,6.02,6.38,15.53,10.73,22.45-2.55-1.93-6.46-5.2-7.47-6.51-4.01-5.18-9.68-28.68-11.88-35.82-3.97-12.91-2.26-39.46,16.92-50.81,3.21-1.9,7.02-2.78,10.76-3.48,11.76-2.19,23.41-.6,31.83,8.96.06.06,2.48,2.88,2.53,2.94,2.59,2.98,4.69,7.4,6.46,11.09.08.18.16.35.24.52,2.87,6.15,3.98,9.37,4.6,15.96.12,1.21-.79,13.25-.82,14.47-.08,4.29.89,5.09-.39,14.28,0,0-1.32-.79-1.32-.79l-.71-13.28Z"/>
              <path class="cls-40" d="M88.57,115.66s-4.27-8.34-16.22-3.46c-.95.39-1.69.83.39,2.78l15.83.68Z"/>
              <path class="cls-40" d="M113.76,112.17s1.81-9.2,14.64-7.8c1.02.11,1.85.34.39,2.78l-15.03,5.02Z"/>
              <path class="cls-34" d="M93.85,103.19l-1.86,2.74s-8.6-1.68-10.75-1.51c-2.14.17-6.92.29-10.22,4.23,0,0,2.18-4.51,6.94-5.97,4.75-1.46,15.89.51,15.89.51Z"/>
              <path class="cls-48" d="M104.44,102.23l2.63,2s7.63-4.32,9.72-4.85c2.09-.52,6.65-1.92,11.02.77,0,0-3.49-3.59-8.46-3.46-4.97.13-14.91,5.54-14.91,5.54Z"/>
              <g>
                <path class="cls-14" d="M92.11,117.87c.08.13.03.29-.1.35-.41.2-1.24.6-1.39.79-.2.26-1.6,1.09-3.64,1.72s-4.82.78-7.6-1c-2.79-1.78-3.87-4-4.07-4.66s2.01-3.44,5.21-4.05c3.2-.61,7.87,1.92,9.57,4.03,1.21,1.5,1.79,2.4,2.03,2.8Z"/>
                <g class="cls-68">
                  <g>
                    <path class="cls-28" d="M86.9,114.92c1.13,2.3.27,5.1-1.92,6.25s-4.9.22-6.03-2.07c-1.13-2.3-.27-5.1,1.92-6.25s4.9-.23,6.03,2.07Z"/>
                    <path class="cls-16" d="M85.23,115.8c.66,1.33.16,2.96-1.12,3.63s-2.84.13-3.5-1.2-.16-2.96,1.12-3.63,2.84-.13,3.5,1.2Z"/>
                    <path class="cls-31" d="M81.25,116.83c.23.47.06,1.03-.39,1.26s-.99.05-1.22-.42-.06-1.03.39-1.26.99-.05,1.22.42Z"/>
                    <ellipse class="cls-31" cx="85.4" cy="117.44" rx=".69" ry=".72" transform="translate(-15.51 13.02) rotate(-8)"/>
                  </g>
                </g>
                <path class="cls-45" d="M91.57,117.04s-2.61-5.29-6.72-6.38c-4.12-1.1-7.84.36-10.68,2.69-1.16.95-1.88,3.02-5.27,4.08-1.14.36-1.8.02-1.8.02,0,0,1.54.99,4.13.23,2.59-.76,3.56-1.21,3.56-1.21,0,0,4.23,4.71,7.98,4.6,0,0-4.68-1.14-5.98-4.89-.42-1.22.88-3.38,3.08-4.3,2.2-.92,5.63.05,7.69,1.6,2.06,1.55,4.01,3.56,4.01,3.56Z"/>
              </g>
              <g>
                <path class="cls-53" d="M109.82,115.05c-.04.14.05.29.19.31.46.08,1.4.24,1.6.39.27.2,1.88.61,4.08.68s5.24-.99,7.54-3.46c2.3-2.47,2.54-4.46,2.56-5.15s-2.91-2.77-6.26-2.49c-3.34.28-7.31,3.98-8.44,6.48-.8,1.78-1.14,2.8-1.27,3.25Z"/>
                <g class="cls-65">
                  <g>
                    <path class="cls-28" d="M112.34,110.99c-.63,2.5.85,5.04,3.32,5.67,2.46.63,4.98-.88,5.61-3.38s-.85-5.04-3.32-5.67-4.98.88-5.61,3.38Z"/>
                    <path class="cls-16" d="M114.21,111.47c-.37,1.45.5,2.92,1.93,3.29s2.89-.51,3.25-1.96-.5-2.92-1.93-3.29-2.89.51-3.25,1.96Z"/>
                    <path class="cls-31" d="M118.44,111.59c-.13.51.17,1.02.67,1.15s1.01-.18,1.13-.68-.17-1.02-.67-1.15-1.01.18-1.13.68Z"/>
                    <ellipse class="cls-31" cx="114.41" cy="113.12" rx=".72" ry=".71" transform="translate(-10.66 214.33) rotate(-83.66)"/>
                  </g>
                </g>
                <path class="cls-6" d="M110.14,114.11s1.18-5.8,4.98-7.98c3.8-2.17,7.9-1.77,11.34-.3,1.41.6,2.67,2.4,6.33,2.5,1.23.04,1.8-.46,1.8-.46,0,0-1.27,1.37-4.05,1.34-2.78-.03-3.86-.21-3.86-.21,0,0-2.99,5.52-6.76,6.43,0,0,4.39-2.2,4.69-6.16.1-1.29-1.78-3.02-4.21-3.31s-5.58,1.57-7.22,3.62c-1.64,2.06-3.04,4.52-3.04,4.52Z"/>
              </g>
              <g>
                <g class="cls-64">
                  <path class="cls-18" d="M108.25,133.92s.54.84-.69,2.15c0,0-1.48.29-2.57,1.54,0,0-1.21.94-2.88,1.35l-.47-3.54s1.52-.12,6.6-1.49Z"/>
                  <path class="cls-37" d="M94.88,135.66s-.31.95,1.23,1.9c0,0,1.51-.1,2.88.83,0,0,1.42.6,3.13.56l-.47-3.54s-1.5.28-6.77.25Z"/>
                </g>
                <path class="cls-7" d="M108.25,133.92s-2.83-3.91-7.24-3.34c-4.41.57-6.13,5.08-6.13,5.08,0,0,6.21.87,13.37-1.74Z"/>
              </g>
              <g>
                <polygon class="cls-11" points="117.84 141.99 112.01 144.53 95.57 146.59 90.65 145.81 94.91 150.51 103.5 155.06 113.97 149.71 117.84 141.99"/>
                <path class="cls-57" d="M113.85,148.87c-7.14-1.57-11.67-1.12-17.62,2.48l1.65,1.71,6.55,1.88,7.26-3.14,2.16-2.92Z"/>
                <path class="cls-62" d="M114.86,143.88c-2.11,3.68-4.88,5.54-9.75,6.2-4.55.62-8.06-.11-10.7-3.09l20.45-3.12Z"/>
                <path class="cls-4" d="M117.84,141.99c-7.4,2.76-18.7,4.35-27.19,3.82,4.57,1.54,7.66,2.36,13.45,1.52,5.84-.85,9.04-2.17,13.73-5.34Z"/>
                <path class="cls-35" d="M90.65,145.81c4.98,5.21,8.11,7.09,11.4,7.6,1.73.27,3.5.07,5.15-.51,4.41-1.56,7.4-5.08,10.63-10.91-2.23,8.35-7.85,13.76-12.89,14.45-5.09.7-10.31-3.99-14.29-10.63Z"/>
              </g>
            </g>
            <g>
              <path class="cls-39" d="M100.73,48.23c35.12-1.25,43.98,45.48,43.52,53.31-.13,2.22-3.13,3.35-3.13,3.35,0,0-2.1-8.2-3.42-10.12-2.4-3.51-8.65-17.15-12.61-22.28-2.14-2.76-7.17-6.48-12.71-7.52-8.67-1.63-16.6-.24-24.43,3.94-2.06,1.1-8.86,2.89-13.09,12.45-1.38,3.12-6.33,15.76-6.24,34.06-2.5-3.21-3.75-2.49-4.75-5.41-.98-2.89-11.45-60.06,36.87-61.78Z"/>
              <path class="cls-58" d="M72.48,53.81c.79-.71,4.2-5.46,11.05-7.61,3.69-1.16,6.77-1.82,14.57-2.41,3.89-.29,12.69-.27,15.77-.15,4.2.17,2.78,1.49,5.33,3.08,4.53,2.84,10.32,2.34,12.58,3.76,2.13,1.33,1.71,2.34,1.72,3.62.03,4.99,4.8,5.26,6.89,8.09,2.14,2.89,1.47,6.65,4.43,9.6,1.42,1.41,1.31,3.89,1.63,6.46.91,7.25,1.54,18.13-2.2,23.29,0,0-1.39-5.98-2.33-12.6-.93-6.61-5.74-12.58-9.63-19.45-4.87-8.59-18.04-13.29-32.78-11.23-3.19.45-16.06,1.25-19.38,2.12-14.68,3.86-14.94,18.28-15.56,22.22-1.17,7.5.83,29.83.83,29.83,0,0-5.86-6.9-6.33-9.37-2.55-13.26-4.84-16.16-.55-30.29.39-1.3-.29-3.44.17-4.54.69-1.65,2.37-2.6,3.04-4.43.73-1.97,1.59-3.85,2.87-5.24,1.22-1.33,3.53-.81,5.11-2.26.87-.8,1.79-1.62,2.78-2.5Z"/>
              <path class="cls-13" d="M146.23,76.05c.16,1.25,1.63,6.87.89,22.77-2.93-.13-2.97,4.55-3.54,5.02,0,0-1.72,4.93-2.9,11.5,0,0-3.39-22.33-4.16-24.85,0,0,9.86-5.65,9.71-14.44Z"/>
              <path class="cls-29" d="M69.98,99.95c-.93,8.56-.26,16.61.24,25.43,0,0-2.96-9.72-3.94-10.69-.83-.82-2.24-1.89-4.41-.95,0,0-5.77-11.18-5.72-26.61,0,0,6.52,11.71,13.83,12.83Z"/>
              <path class="cls-52" d="M86.13,48.29c-2.15,1.11-4.55,2.63-6.17,4.43-2.09,2.33,1.47,4.16,2.83,5.65.26.29.9.84.96,1.26.06.4-.46.95-.65,1.24-.65,1.01-1.26,2.03-1.87,3.06-.34.58-.63,1.07-.2,1.69.59.86,1.68,1.53,2.47,2.18-.41-.77-.95-1.47-1.35-2.25-.2-.4-.21-.41.03-.81.24-.4.72-.77,1.03-1.13,1.49-1.7,3.54-3.5,1.92-5.77-.66-.92-1.48-1.73-2.37-2.42-.33-.26-1.52-.83-1.59-1.27-.05-.33.53-.82.73-1.06.48-.56.96-1.13,1.45-1.69.91-1.05,1.84-2.09,2.78-3.12Z"/>
              <path class="cls-30" d="M67.4,57.86c-1.08,1.48-2.57,3.29-2.45,5.22.17,2.76,3.03,3.95,5.25,4.78.37.14,1.54.41,1.69.83.11.31-.48,1.29-.6,1.55-.27.65-.56,1.29-.86,1.92-.98,2.09-3.33,5.27-1.53,7.54-.77-2.37,1.55-4.36,2.74-6.14,1.03-1.53,3.4-4.55,1.84-6.34-1.37-1.58-4.02-1.48-5.72-2.57-2.6-1.67-1.08-4.47-.37-6.79Z"/>
              <path class="cls-12" d="M104.16,45c-.82.32-1.88.78-2.43,1.49-.72.93-.09,1.75.63,2.42.71.65,1.79,1.53,1.55,2.61-.21.99-1.41,1.48-2.15,2-.46.32-.84.65-.88,1.27-.07,1.11.96,1.51,1.75,1.98,2.17,1.31,2.56,4.21,1.03,6.18,3.22-1.64,2.56-6.22-.14-7.97.13-.17.58-.42.79-.59,1.17-.94,1.94-2.34,1.49-3.85-.21-.68-.65-1.27-1.17-1.75-.53-.49-1.4-.75-1.87-1.25-.73-.79.81-1.97,1.4-2.53Z"/>
              <path class="cls-17" d="M121.52,49.03c.55,1.31,1.15,2.52.28,3.83-.93,1.41-2.42,2.59-3.63,3.76-1.04.99-1.04,1.75-.31,2.9.86,1.35,1.06,2.92.22,4.36,1.15-.55,1.79-1.83,1.88-3.06.02-.35,0-.71-.06-1.06-.07-.36-.5-1.01-.48-1.32,0-.13.01-.07.06-.19.09-.21.56-.48.73-.64.39-.36.76-.74,1.11-1.14.62-.7,1.22-1.46,1.66-2.29,1.1-2.09.27-3.8-1.46-5.16Z"/>
              <path class="cls-23" d="M134.12,58.14c1.91,2.32-1.8,5.17-1.97,7.56-.11,1.54.8,2.69,1.57,3.93.89,1.42.72,3.2-.76,4.2,1.49.02,2.66-1.42,2.87-2.78.26-1.71-.93-2.88-1.42-4.39-.5-1.53.58-3.03.97-4.47.38-1.41.28-3.33-1.26-4.04Z"/>
              <path class="cls-41" d="M56.88,88.26c.67,1.36,1.53,2.66,1.91,4.15.43,1.69-.41,3.14-.3,4.81.12,1.78,1.4,3.03,2.76,4.03,1.22.89,2.94,1.88,3.01,3.58,1.74-3.16-3.62-5.15-3.64-8-.01-1.7.52-3.02-.23-4.69-.73-1.62-2.12-2.83-3.51-3.88Z"/>
              <path class="cls-32" d="M144.25,79.69c-.99.99-2.12,2.92-1.7,4.36.46,1.57,2.73,2.07,1.93,3.99-.76,1.84-2.1,3.21-3.24,4.79-.98,1.35-1.76,3.72-.01,4.86-.94-1.47.21-2.99,1.31-3.95,1.56-1.36,2.93-2.71,3.8-4.62.87-1.91.27-3.59-1.39-4.83-.67-.5-1.18-.64-1.22-1.54-.04-1.03.17-2.11.52-3.07Z"/>
              <path class="cls-36" d="M145.12,72.14c-1.55-1.59-2.29-3.81-2.56-6.11-.16-1.34.25-2.94-.52-4.11-.76-1.15-2.22-1.89-3.37-2.62-1.05-.66-2.29-.95-3.34-1.63-1.19-.77-1.07-1.41-.73-2.7.69-2.65-.64-5.79-3.15-6.63-2.58-.86-6.25.15-8.86-.61-.55-.16-1.97-.34-2.34-.83-.41-.55-.29-1.71-.5-2.36-.77-2.33-3.33-3.04-5.55-2.51-1.05.25-2.01.77-3.03,1.11-1.21.4-2.35.26-3.54-.13-2.16-.71-4.1-1.87-6.39-2.17-1.32-.17-2.67-.06-3.89.49-.88.4-1.8,1.62-2.73,1.75-.76.11-1.83-.84-2.48-1.14-1.28-.59-2.66-.75-3.99-.19-1.91.8-2.91,2.81-4.87,3.48-2.26.78-4.84.8-6.39,2.91-.49.67-.63,1.65-1.26,2.2-.82.73-2.16.93-3.13,1.43-2.21,1.15-3.88,3.07-6.04,4.29-1.56.88-4.2.56-5.02,2.41-.47,1.07,0,1.93.33,2.94.29.88.07,1.69-.5,2.43-1.53,2.01-4.61,2.51-4.33,5.54.1,1.08.41,2.11.45,3.21.06,1.57-.16,3.13-.41,4.68-.54,3.29-1.35,6.67-.61,10-.44-5.16,2.42-9.86,2.57-14.96.03-1.09-.32-2.23-.19-3.3.14-1.13,1.44-1.53,2.3-2.08,2.13-1.37,3.93-3.54,3.16-6.2-.07-.24-.33-.7-.19-.94.26-.44,1.93-.43,2.35-.56,2.76-.86,4.69-3.07,7.18-4.39,2.15-1.14,4.43-1.34,5.61-3.75.56-1.14,1.18-1.53,2.41-1.83,1.36-.33,2.75-.52,4.02-1.14,1.44-.71,2.31-2.22,3.7-2.92.57-.28.99-.12,1.53.15,1.01.51,1.93,1.14,3.08,1.31,1.14.17,2.21-.16,3.16-.79.74-.5,1.36-1.2,2.25-1.43,2.58-.67,5.48,1.44,7.9,2.05,1.25.32,2.56.42,3.84.16,1.29-.27,2.38-.96,3.61-1.37.57-.19,1.55-.46,2.02.05.59.62.45,2.13.89,2.92,1.01,1.83,3.43,2,5.28,2.44,1.77.42,3.71.56,5.95.42.97-.06,2.72-.07,3.19.99.39.88.41,3.22.42,4.15.01,1.12.54,1.99,1.47,2.59,2.48,1.61,6.44,2.27,7.56,5.38.48,1.34-.63,2.86.12,4.12.83,1.39,2.3,2.85,3.55,3.85Z"/>
              <path class="cls-20" d="M137.36,92.66c-.79-1.73-.16-3.29-.37-5.06-.15-1.25-.62-1.54-1.57-2.28-1.21-.95-1.71-2.1-2.11-3.58-.49-1.8-.77-3.68-1.98-5.2-1.31-1.64-4.56-2.23-5.18-4.35-.36-1.25.35-2.56-.52-3.71-1.16-1.55-3.1-1.08-4.73-1.43-1.6-.34-2.51-1.75-3.76-2.69-2.13-1.6-5.09-1.66-7.65-2-4.77-.63-9.3-.18-13.67,1.88-1.51.71-2.49,1.3-4.22,1.41-2.25.14-4.57-.2-6.79.36-3.61.91-5.59,4.55-8.68,6.38-2.26,1.35-3.31,3.2-3.55,5.77-.21,2.27-.27,3-1.67,4.68-2.89,3.5.51,8.45-2.76,11.55-1.06,1-1.25,1.85-.87,3.25.89,3.24,1.49,6.26.98,9.65.54-1.77.81-3.6.8-5.45,0-1.28-.14-2.55-.4-3.8-.3-1.45-.38-1.67.72-2.64,2.09-1.83,2.29-3.72,2.35-6.44.04-1.86.1-3.37,1.41-4.71,1.13-1.16,1.7-1.91,2.04-3.5.3-1.43.1-3.29,1.05-4.52.81-1.05,2.61-1.55,3.67-2.35,1.8-1.35,3.19-3.66,5.4-4.39,1.52-.5,3.3-.24,4.87-.24,2.72,0,4.68-.57,7.07-1.72,5-2.41,9.74-2.04,15.1-1.45,1.12.12,2.04.21,2.99.84.93.61,1.64,1.49,2.59,2.08.92.57,1.87.84,2.95.92.57.04,1.69-.22,2.21.07.27.15.31.12.46.38.38.65.04,2,.36,2.77.22.52.58,1,.97,1.41,1.71,1.8,4.44,2.02,5.75,4.23.97,1.64,1.23,3.57,2.18,5.23.7,1.22,1.49,1.51,2.54,2.28.36.26.55.32.8.72,1.02,1.68.05,3.84,1.19,5.63Z"/>
            </g>
            <g>
              <path class="cls-33" d="M74.91,107.95c8.99-1.71,17.84-.94,17.84-.94,2.76.21,3.43,1.76,3.31,4.16-.12,2.45-1.85,9.26-4.05,11.34-.11.1-.22.2-.34.3-2.06,1.71-5.03,2.52-7.75,2.95-1.69.27-3.4.38-5.1.45-1.62.07-3.3,0-4.75-.59-.21-.09-.42-.19-.62-.29-2.48-1.34-4.02-4.03-4.97-6.32-.5-1.2-.89-2.44-1.17-3.7-.15-.66-.39-1.45-.27-2.15.82-4.53,4.75-4.61,7.87-5.21Z"/>
              <g>
                <path class="cls-33" d="M126.01,100.77c-9.11.84-17.41,4.01-17.41,4.01-2.59.97-2.81,2.63-2.04,4.91.79,2.32,4.33,8.39,7.02,9.78.13.07.27.13.41.2,2.45,1.08,5.53,1.03,8.27.7,1.7-.21,3.37-.57,5.02-.97,1.58-.38,3.17-.9,4.41-1.88.18-.14.35-.3.52-.45,2.02-1.97,2.75-4.98,3.04-7.45.15-1.29.19-2.59.11-3.88-.04-.68-.02-1.51-.33-2.14-2.04-4.13-5.84-3.12-9-2.83Z"/>
                <path class="cls-19" d="M92.17,104.49c4.42.1,8.25-.4,8.25-.4,0,0,3.82-.58,8.04-1.89,4.23-1.32,18.51-4.45,29.51-4.43l.57,4.09s-1.2,1.14-1.32,2.71c-.11,1.56-.09,8.39-2.72,12.1-1.78,2.5-6,3.67-9.12,4.34-2.24.48-4.54.7-6.81.65-2.14-.05-4.63-.15-6.27-1.38-2.78-2.1-4.51-4.2-6.1-6.81-1.59-2.61-2.25-4.72-5.07-4.26-2.83.34-2.89,2.55-3.7,5.49-.81,2.95-1.89,5.44-3.98,8.23-1.23,1.64-3.6,2.42-5.64,3.06-2.17.68-4.45,1.1-6.73,1.25-3.19.22-7.56.26-9.96-1.65-3.55-2.84-5.41-9.41-5.95-10.88-.54-1.47-2.01-2.24-2.01-2.24l-.57-4.09c10.57-3.05,25.16-3.98,29.59-3.88ZM106.56,109.66c.79,2.32,4.33,8.39,7.02,9.78.13.07.27.13.41.2,2.45,1.08,5.53,1.03,8.27.7,1.7-.21,3.37-.57,5.02-.97,1.58-.38,3.17-.9,4.41-1.88.18-.14.35-.3.52-.45,2.02-1.97,2.75-4.98,3.04-7.45.15-1.29.19-2.59.11-3.88-.04-.68-.02-1.51-.33-2.14-2.04-4.13-5.84-3.12-9-2.83-9.11.84-17.41,4.01-17.41,4.01-2.59.97-2.81,2.63-2.04,4.91ZM67.3,115.27c.28,1.26.67,2.5,1.17,3.7.95,2.29,2.49,4.98,4.97,6.32.2.11.41.21.62.29,1.45.6,3.13.66,4.75.59,1.7-.07,3.41-.18,5.1-.45,2.72-.43,5.7-1.24,7.75-2.95.12-.1.23-.2.34-.3,2.19-2.08,3.93-8.89,4.05-11.34.12-2.4-.55-3.94-3.31-4.16,0,0-8.86-.76-17.84.94-3.12.59-7.05.68-7.87,5.21-.13.69.12,1.48.27,2.15Z"/>
              </g>
            </g>
          </g>
          <rect class="cls-43" x="13.18" y="330.95" width="181.01" height="95.21"/>
          <g>
            <path class="cls-9" d="M75.52,363.45s0,0-.01,0c-.38.03-.77.06-1.18.09,0,0,0,0-.01,0-.49.04-1,.07-1.52.09h0c-.26.02-.52.03-.77.04-.09,0-.18.01-.27.02-.17,0-.34.02-.51.02h-.01c-.17,0-.34.02-.51.02h0c-.25.01-.51.02-.75.03-.08,0-.17,0-.25,0-.16,0-.32.01-.48.02-.32,0-.62.02-.92.03-.15,0-.29,0-.42,0-1.31.02-2.25,0-2.4-.06-.12-.05-.24-.12-.33-.21-.03-.03-.07-.06-.1-.09-.06-.06-.12-.13-.18-.2-.25-.32-.42-.71-.53-1.05-.14-.44-.19-.8-.19-.8-1.32-.06-2.83-.25-3.94-.54-.75-.19-1.31-.43-1.53-.69-.17-.21-.34-.57-.5-.97-.03-.06-.05-.12-.07-.19-.05-.13-.1-.26-.14-.39-.03-.06-.05-.13-.07-.19h0c-.02-.07-.04-.13-.06-.19h0c-.02-.06-.04-.12-.06-.18-.15-.47-.24-.81-.24-.81,0,0-1.15,0-2.03-.55-.89-.56-1.56-2.13-2.12-3.86-.05-.14-.08-.27-.11-.4-.01-.04-.02-.08-.03-.12-.02-.08-.03-.15-.04-.22,0-.06-.02-.11-.02-.16,0-.05,0-.11-.01-.16,0-.06,0-.13,0-.18.02-.69.34-.87.34-.87,0,0-2.34-.6-4.85-2.56-2.51-1.96-4.32-4.39-3.58-5.78.2-.38.58-.65,1.06-.82.04-.02.09-.03.15-.05.02,0,.03-.01.06-.01.06-.02.13-.04.2-.05.07-.02.15-.03.22-.04.15-.02.31-.04.48-.05.08,0,.16,0,.24,0,0,0,0,0,.01,0,.33,0,.66.04,1,.1.09.02.17.04.26.06.08.02.17.04.25.07.08.03.17.05.25.08.17.06.33.12.48.19.32.14.61.32.87.53.23.18.48.34.76.47,1.77.89,4.26.93,4.26.93,2.63-.61,6.8-.85,6.8-.85,1.47-.82,6.38-2.28,6.38-2.28l.08-1.32c-2.39.63-9.76,1.09-12,.21-2.24-.88-6.61-3.05-5.78-5.24.2-.52.49-.87.85-1.1,1.15-.73,3.04-.26,5.18-.42,2.81-.21,9.11-1.1,10.09-1.2.99-.11,6.16-1.87,6.51-1.84,1.74.12,4,.38,7.33.46,3.33.08,6.51.99,9.21,2.03.87.34,1.93.68,3.2.98.34.07.53.12.53.12,2.01.41,3.99.58,5.81.6,5.1.05,9.28,3.97,9.64,9l.39,5.5.14,1.95c-1.86.54-4.68,2.11-6.55,1.9-1.76-.21-4.39.22-6.57,1.29-.13.06-.25.12-.37.19-4.61,2.45-8.93,4.76-12.2,6.48-.19.1-.38.2-.56.3-.18.1-.37.19-.54.29-.27.14-.52.27-.77.4-.16.09-.32.17-.48.25-.15.08-.31.16-.45.23-.15.07-.29.15-.43.22-.49.24-.91.46-1.27.63-.11.05-.2.09-.29.14-.05.02-.09.05-.14.06-.13.06-.25.11-.36.16-.14.06-.26.11-.36.14-.03.01-.06.02-.1.03-.49.14-1.6.27-2.98.38Z"/>
            <path class="cls-50" d="M75.52,363.45s0,0-.01,0c-.38.03-.77.06-1.18.09,0,0,0,0-.01,0-.49.03-1.01.06-1.52.09h0c-.25.01-.52.03-.77.04-.09,0-.18.01-.27.02-.17,0-.34.01-.51.02h-.01c-.17,0-.34.01-.51.02h0c-.25,0-.5.02-.75.03-.08,0-.17,0-.25,0-.16,0-.32,0-.48.02-.32,0-.62.02-.92.03-.15,0-.29,0-.42,0-1.31.02-2.25,0-2.4-.06-.12-.05-.24-.12-.33-.21-.03-.03-.07-.06-.1-.09-.06-.06-.12-.13-.18-.2-.05-.07-.11-.15-.15-.22.21.03.4.06.53.05,4.92-.22,10.6-.63,11.78-1.08,3.24-1.22,14.07-7.31,18.24-9.54,5.64-3.2,11.75-1.03,14.55-4.05l.14,1.95c-1.86.54-4.68,2.11-6.55,1.9-1.76-.21-4.39.22-6.57,1.29-.13.06-.25.12-.37.19-4.61,2.45-8.93,4.76-12.2,6.48-.19.1-.38.2-.56.3-.18.1-.37.19-.54.29-.27.14-.52.27-.77.4-.16.09-.32.17-.48.25-.15.08-.31.16-.45.23-.15.08-.29.15-.43.22-.48.25-.91.46-1.27.63-.1.05-.2.1-.29.14-.05.02-.09.05-.14.06-.13.06-.25.11-.36.16-.14.06-.26.11-.36.14-.03.01-.06.02-.1.03-.49.14-1.6.27-2.98.38Z"/>
            <path class="cls-50" d="M53.5,350.74s-.31.18-.34.82h0s1.52.87,2.76.83c1.2-.05,8.74-.73,9.21-.78-2.26-.13-8.39.45-9.33.15-.95-.31-2.31-1.02-2.31-1.02Z"/>
            <path class="cls-50" d="M57.77,358.07h0s9.1-.73,9.1-.73l-9.34-.08s.09.35.24.81Z"/>
            <path class="cls-50" d="M64.34,362.21h0s3.66-.78,3.66-.78h-3.86s.05.34.19.78Z"/>
            <path class="cls-50" d="M45.07,342.39c-.74,1.39,1.07,3.82,3.58,5.78,2.51,1.96,4.85,2.56,4.85,2.56,0,0-.33.18-.34.87,0,.06,0,.12,0,.18,0,.05,0,.11.01.16,0,.05.01.1.02.16.01.07.02.14.04.22,0,.04.02.08.03.12.03.12.07.26.11.4.56,1.73,1.23,3.3,2.12,3.85.89.56,2.03.55,2.03.55,0,0,.09.35.24.81.02.05.04.11.06.17h0c.02.06.04.13.06.19h0c.02.06.04.13.06.19.05.13.1.26.14.39.02.06.05.13.07.19.16.4.34.76.5.97.21.27.78.5,1.53.69,0,0-1.41-1.91-.96-3.24-.03.05-.23.32-1.36-.52-1.23-.92-3.48-4.47-2.8-5.63l.73.28c-1.11-.92-.26-4.53-.26-4.53,0,0-.64-.24-1.22-.62,13.14-1.65,18.43-8.96,18.43-8.96l-3.9,1.69-.08,1.32s-4.91,1.47-6.38,2.28c0,0-4.17.24-6.8.86,0,0-2.49-.04-4.26-.93-.27-.13-.53-.29-.76-.47-.26-.21-.56-.39-.87-.53-.16-.07-.32-.13-.48-.19-.08-.03-.17-.05-.25-.08-.08-.03-.17-.05-.25-.07-.09-.02-.17-.04-.26-.06-.34-.06-.67-.1-1-.1,0,0,0,0,0,0-.08,0-.16,0-.24,0-.16,0-.32.02-.47.05-.07.01-.15.02-.22.04-.07.01-.13.03-.2.05-.02,0-.03,0-.05.01-.05.01-.1.03-.15.05-.48.17-.86.44-1.06.82Z"/>
            <polygon class="cls-50" points="72.75 337.65 68.8 340.18 68.86 339.34 72.75 337.65"/>
            <path class="cls-50" d="M51.93,333.21c.9.14,9.93,1.74,16.03-.42,6.1-2.16,7.53-1.68,9.83-1.66,5.72.06,13.56,1.63,15.65,2.07-1.27-.29-2.32-.64-3.2-.98-2.7-1.05-5.87-1.95-9.2-2.03-3.33-.08-5.59-.34-7.33-.46-.34-.03-5.52,1.74-6.5,1.84-.99.11-7.28.99-10.09,1.2-2.14.16-4.03-.31-5.18.42Z"/>
          </g>
          <g id="Laptop">
            <g>
              <path class="cls-24" d="M5.29,355.78c2.44.44,143.26,19.82,143.26,19.82,3.37.43,6.07.04,6.88-.98l28.55-35.76c.65-.81-3.95-2.77-3.95-2.77l-137.51-14.66c-6.95-.52-10.25.28-11.87,2.03L.43,354.33c.74.41,1.07.76,4.86,1.45Z"/>
              <path class="cls-25" d="M5.29,355.78c2.44.44,143.26,19.82,143.26,19.82,3.37.43,6.07.04,6.88-.98l28.55-35.76c.65-.81-3.95-2.77-3.95-2.77l-137.51-14.66c-6.95-.52-10.25.28-11.87,2.03L.43,354.33c.74.41,1.07.76,4.86,1.45Z"/>
              <path class="cls-61" d="M3.13,355.25l142.69,19.07c3.37.43,6.07.04,6.88-.98l30.25-35.69c.65-.81-1.53-3.14-4.13-3.35l-139.06-15.21c-6.95-.52-10.25.28-11.87,2.03L.08,353.49c-.53.57,1.11,1.52,3.05,1.77Z"/>
            </g>
            <path class="cls-31" d="M68.41,342.87c.42-1.89,5.73-3.53,11.85-3.66,6.13-.13,10.75,1.29,10.33,3.18-.42,1.89-5.73,3.53-11.85,3.66-6.13.13-10.75-1.29-10.33-3.18Z"/>
          </g>
          <g>
            <path class="cls-9" d="M167.86,348.59c-7.71.4-12.9-2.44-20.85-3.32-7.78-.87-13.82.43-18.13-.41-.09-.02-.18-.04-.26-.06-3.98-.95-1.23-16.19,6.32-17.16,7.55-.97,15.9-3.72,29.42-7.87,13.52-4.15,14.05-6.15,17.32-6.53,1.46-.17,4.91-.46,8.95-.87.62-.17,1.24-.27,1.85-.31,6.22-.32,9.24,6.95,6.76,16.24-.81,3.03-2.1,5.89-3.69,8.4-2.88,4.53-6.73,7.86-10.46,8.77-.33.09-.67.15-1,.19-.37.08-.74.17-1.11.25-.74.16-1.48.33-2.22.5-1.53.34-3.07.67-4.55.96-.31.06-.62.12-.92.18-1.07.2-2.11.39-3.09.55-.14.02-.28.05-.42.07-.65.1-1.28.19-1.88.25-.15.02-.29.04-.43.05-.57.06-1.11.1-1.61.13Z"/>
            <path class="cls-50" d="M167.86,348.59c-7.71.4-12.9-2.44-20.85-3.32-7.78-.87-13.82.43-18.13-.41,1.88-.28,4.68-.8,7.69-1.68,5.36-1.57,17.8,0,33.23-.79,5.17-.27,9.95-.87,14-1.56,4.49-.76,8.71-2.6,11.74-4.14-2.88,4.53-6.73,7.86-10.46,8.77-.1,0-.15,0-.15,0-.28.07-.56.13-.85.19-.37.08-.74.17-1.11.25-.74.16-1.48.33-2.22.5-1.53.34-3.07.67-4.55.96-.31.06-.62.12-.92.18-1.07.2-2.11.39-3.09.55-.14.02-.28.05-.42.07-.65.1-1.28.19-1.88.25-.15.02-.29.04-.43.05-.57.06-1.11.1-1.61.13Z"/>
          </g>
          <g>
            <path class="cls-27" d="M133.77,325.78s.87-15.02-1.76-16.66-3.79.9-7.12,1.77-2.08-5.83-5.15-7.04c-3.06-1.22-2.27,2.78-4.86,2.2s-1.75-5.38-5.91-6.24-2.76,2.23-5.48,1.58.24-.56-2.08.93-6.51,8.99-5.24,15.3c1.27,6.31-1.22,14.67,11.68,21.83,12.91,7.17,22.62,5.65,24.42-3.06,1.8-8.71,1.49-10.6,1.49-10.6Z"/>
            <g>
              <path class="cls-50" d="M88.27,293.75c.2-.09,1.51-3.55,3.52-3.78s11.44,4.63,14.41,10.52c2.97,5.89-5.93,6.89-7.77,5.24s-8.54-7.82-8.86-8.37-1.3-3.61-1.3-3.61Z"/>
              <path class="cls-9" d="M91.79,289.77s-9.96,3.18-12.19,8.74c-2.21,5.52,2.73,7.2,6.08,5.48,5.88-3.03,9.93-6.78,10.37-7.18s.21-6.81-4.26-7.03Z"/>
            </g>
            <g>
              <path class="cls-27" d="M81.76,317.34c.07.21-1.33,3.37-.14,4.99s15.79,6.67,21.66,5.14c5.86-1.53-3.15-11.4-5.46-11.71s-12.24.15-12.81.26-3.24,1.32-3.24,1.32Z"/>
              <path class="cls-9" d="M90.18,316.15s-7.96-2.93-12.16.4c-4.18,3.3-1.86,7.43,1.13,7.87,5.27.78,9.74-.05,10.22-.13s3.55-5.48.81-8.14Z"/>
            </g>
            <g>
              <path class="cls-50" d="M102.02,293.43c.22-.04,2.33-3.09,4.33-2.83s8.21,4.91,9.67,11.33-7.43,5.27-8.81,3.22-4.62-7.32-4.8-7.92-.4-3.81-.4-3.81Z"/>
              <path class="cls-9" d="M105.35,290.75s-12.04,7.1-13.34,12.95,3.86,6.67,6.88,4.43c5.31-3.94,11.54-11.01,11.91-11.48s-1.02-6.4-5.46-5.9Z"/>
            </g>
            <g>
              <path class="cls-50" d="M113.22,296.35c.22.05,3.36-1.93,5.11-.91s5.63,7.71,4.45,14.17c-1.18,6.47-8.93,1.94-9.39-.47s-1.37-8.52-1.3-9.14,1.13-3.65,1.13-3.65Z"/>
              <path class="cls-9" d="M115.23,294.75s-9,8.42-8.6,13.95c.39,5.49,5.27,5.62,7.4,3.18,3.74-4.3,7.02-11.26,7.23-11.73s-2.15-6.43-6.03-5.4Z"/>
            </g>
            <g>
              <path class="cls-50" d="M123.59,303.95c.21.06,3.05-1.3,4.8-.31s6.05,6.88,5.49,12.13c-.56,5.26-8.36.83-9.02-1.21s-2.06-7.18-2.04-7.69.77-2.93.77-2.93Z"/>
              <path class="cls-9" d="M124.86,302.6s-9,8.42-8.6,13.95c.39,5.49,5.27,5.62,7.4,3.18,3.74-4.3,7.49-11.6,7.7-12.07s-2.62-6.09-6.5-5.06Z"/>
            </g>
          </g>
          <g>
            <path class="cls-27" d="M8.39,309.63s3.52-14.62,6.39-15.41,3.21,1.97,6.01,3.77,3.58-4.96,6.73-5.23,1.28,3.32,3.82,3.52,3.15-4.63,7.2-4.24c4.05.39,1.89,2.94,4.56,3.11s-.06-.6,1.64,1.5,3.37,10.5.4,16.16c-2.97,5.66-3.09,14.38-16.96,17.46-13.87,3.08-22.32-1.21-21.47-10.06s1.67-10.58,1.67-10.58Z"/>
            <g>
              <path class="cls-50" d="M59.21,292.3c-.16-.15-.36-3.84-2.13-4.64s-11.79,1.08-16.21,5.84,3.45,8.33,5.6,7.28,10.06-4.98,10.51-5.41,2.23-3.07,2.23-3.07Z"/>
              <path class="cls-9" d="M57.32,287.72s8.03,5.71,8.47,11.67c.44,5.92-4.57,6.08-7.13,3.46-4.51-4.62-7.14-9.39-7.43-9.9s1.94-6.33,6.09-5.23Z"/>
            </g>
            <g>
              <path class="cls-27" d="M58.4,316.77c-.13.18.25,3.61-1.31,4.82s-16.36,1.76-21.29-1.42,6.15-9.98,8.36-9.6,11.16,3.72,11.65,3.99,2.59,2.21,2.59,2.21Z"/>
              <path class="cls-9" d="M51.04,313.16s8.12-.47,11.02,3.94c2.88,4.38-.43,7.65-3.3,7.2-5.05-.79-8.9-2.89-9.32-3.11s-1.68-6.27,1.59-8.02Z"/>
            </g>
            <g>
              <path class="cls-50" d="M46.73,287.98c-.19-.11-1.25-3.63-3.15-3.97s-8.92,2.3-12.1,8.01c-3.19,5.71,5.29,7.21,7.14,5.66s6.33-5.65,6.66-6.17,1.46-3.52,1.46-3.52Z"/>
              <path class="cls-9" d="M44.44,284.35s8.99,10.41,8.49,16.38-5.45,5.25-7.57,2.23c-3.73-5.31-7.4-13.9-7.61-14.46s2.76-5.92,6.68-4.15Z"/>
            </g>
            <g>
              <path class="cls-50" d="M35.64,287.5c-.21-.02-2.53-2.82-4.41-2.36s-7.36,5.72-8.14,12.25,7.61,4.47,8.73,2.29,3.7-7.74,3.81-8.36,0-3.82,0-3.82Z"/>
              <path class="cls-9" d="M34.26,285.38s5.82,10.68,3.87,15.86-6.44,3.84-7.69.88c-2.19-5.2-3.03-12.43-3.08-12.95s3.64-5.91,6.9-3.79Z"/>
            </g>
            <g>
              <path class="cls-50" d="M23.97,291.73c-.21,0-2.41-2.14-4.31-1.7s-7.51,4.81-8.51,10c-1,5.19,7.41,3.24,8.6,1.48s3.94-6.26,4.07-6.76.14-3.02.14-3.02Z"/>
              <path class="cls-9" d="M23.2,290.08s5.82,10.68,3.87,15.86c-1.93,5.14-6.44,3.84-7.69.88-2.19-5.2-3.53-13.28-3.58-13.8s4.14-5.06,7.4-2.94Z"/>
            </g>
          </g>
          <g id="Laptop-2" data-name="Laptop">
            <g>
              <path class="cls-15" d="M-42.9,298.6c2.58,0,152.85,11.27,152.85,11.27,3.61.34,6.61,1.94,7.67,4.09l37.18,75.09c.84,1.7-3.84,3.77-3.84,3.77L3.51,374c-7.49-1.35-11.22-3.93-13.29-7.67l-38.18-66.69c.74-.5,1.04-1.04,5.06-1.04Z"/>
              <path class="cls-25" d="M-42.9,298.6c2.58,0,152.85,11.27,152.85,11.27,3.61.34,6.61,1.94,7.67,4.09l37.18,75.09c.84,1.7-3.84,3.77-3.84,3.77L3.51,374c-7.49-1.35-11.22-3.93-13.29-7.67l-38.18-66.69c.74-.5,1.04-1.04,5.06-1.04Z"/>
              <path class="cls-47" d="M-45.17,298.85l152.35,12.46c3.61.34,6.61,1.94,7.67,4.09l37.18,75.09c.84,1.7-1.63,3.26-4.43,2.79L.88,377.37c-7.49-1.35-11.22-3.93-13.29-7.67l-35.8-68.63c-.68-1.22.96-2.42,3.03-2.22Z"/>
            </g>
            <path class="cls-31" d="M28.1,343.26c.78,3.6,6.84,8.37,13.54,10.65,6.7,2.28,11.5,1.2,10.72-2.4-.78-3.6-6.84-8.37-13.54-10.65-6.7-2.28-11.5-1.2-10.72,2.4Z"/>
          </g>
        </g>
      </g>
      <circle class="cls-67" cx="112.69" cy="117.77" r="108.47"/>
    </g>
  </g>
</svg>